<svg width="512" height="512" viewBox="0 0 512 512" fill="none" xmlns="http://www.w3.org/2000/svg">
<path d="M230.37 58.76C107.282 58.76 7.5 158.542 7.5 281.63C7.5 404.718 107.282 504.5 230.37 504.5C291.914 504.5 347.631 479.554 387.963 439.223L230.37 281.63V58.76Z" fill="#6F8DF7"/>
<path d="M230.37 281.63V58.76C222.848 58.76 215.414 59.138 208.083 59.866V281.63C208.083 287.541 210.431 293.21 214.611 297.389L371.412 454.19C377.174 449.475 382.684 444.464 387.944 439.204L230.37 281.63Z" fill="#6F8DF7"/>
<path d="M230.37 281.63L387.963 439.223C428.295 398.891 453.24 343.174 453.24 281.63H230.37Z" fill="#A36FF7"/>
<path d="M453.24 281.63H230.37L252.657 303.917H452.134C452.861 296.586 453.24 289.152 453.24 281.63Z" fill="#A36FF7"/>
<path d="M230.37 7.5V281.63H504.5C504.5 130.232 381.768 7.5 230.37 7.5Z" fill="#6FF7DA"/>
<path d="M429.513 82.488C376.319 29.295 305.596 0 230.37 0C226.228 0 222.87 3.358 222.87 7.5V51.396C169.329 53.133 118.094 73.408 77.871 108.957C74.767 111.7 74.475 116.44 77.218 119.543C78.7 121.22 80.765 122.076 82.841 122.076C84.606 122.076 86.379 121.456 87.805 120.196C125.284 87.072 172.992 68.134 222.87 66.404V163.065C222.87 167.207 226.228 170.565 230.37 170.565C234.512 170.565 237.87 167.207 237.87 163.065V160.29L351.71 274.13H308.718L237.87 203.283V198.421C237.87 194.279 234.512 190.921 230.37 190.921C226.228 190.921 222.87 194.279 222.87 198.421V281.63C222.87 283.702 223.71 285.577 225.068 286.934L270.018 331.885C272.947 334.814 277.695 334.814 280.625 331.885C283.554 328.956 283.554 324.207 280.625 321.279L248.476 289.13H445.595C443.746 342.862 422.124 391.652 387.789 428.443L306.011 346.665C303.081 343.736 298.333 343.736 295.404 346.665C292.475 349.594 292.475 354.343 295.404 357.271L377.182 439.049C338.686 474.976 287.056 497 230.37 497C111.615 497 15 400.385 15 281.63C15 232.485 31.986 184.42 62.829 146.288C65.434 143.067 64.935 138.345 61.715 135.74C58.494 133.135 53.772 133.634 51.167 136.854C18.171 177.647 0 229.063 0 281.63C0 343.164 23.963 401.015 67.474 444.526C110.985 488.037 168.836 512 230.37 512C291.904 512 349.755 488.037 393.266 444.526C435.004 402.788 458.74 347.852 460.606 289.13H504.5C508.643 289.13 512 285.772 512 281.63C512 206.404 482.705 135.681 429.513 82.488ZM453.24 274.13H437.15L237.87 74.851V31.857L480.142 274.13H453.24ZM242.516 15.29C259.667 16.064 276.398 18.467 292.565 22.346L489.654 219.435C493.533 235.601 495.936 252.333 496.71 269.483L242.516 15.29ZM480.354 188.921L323.079 31.647C395.633 58.646 453.354 116.368 480.354 188.921ZM237.87 139.077V96.063L415.936 274.13H372.924L237.87 139.077ZM237.87 274.13V224.496L287.504 274.13H237.87Z" fill="black"/>
</svg>
