<svg width="375" height="812" viewBox="0 0 375 812" fill="none" xmlns="http://www.w3.org/2000/svg">
<g clip-path="url(#clip0)">
<rect width="375" height="812" fill="#6F8DF7"/>
<path d="M21.6322 18.1338L18.5707 20.1113L18.8344 20.5215L21.0023 19.1885V25.4873L19.098 25.6191V26H24.4154C24.4154 25.7949 24.3129 25.6729 24.1078 25.6338C24.0688 25.624 24.0297 25.6191 23.9906 25.6191L22.7162 25.4873V18.1338H21.6322ZM25.6389 24.6816C25.6389 24.3203 26.0002 23.9346 26.7229 23.5244C26.8889 23.4365 27.1574 23.2998 27.5285 23.1143C28.6125 22.5576 29.3498 22.0889 29.7404 21.708C30.2287 21.2197 30.4729 20.6924 30.4729 20.126C30.4729 19.1689 29.9553 18.5244 28.9201 18.1924C28.5002 18.0557 28.0412 17.9873 27.5432 17.9873C26.5275 17.9873 25.7658 18.2412 25.258 18.749C24.9553 19.0518 24.8039 19.4131 24.8039 19.833C24.8039 20.3115 24.9797 20.6094 25.3312 20.7266C25.4191 20.7559 25.507 20.7705 25.5949 20.7705C26.0637 20.7705 26.3469 20.5459 26.4445 20.0967C26.4641 19.9893 26.4787 19.8184 26.4885 19.584C26.5275 19.0664 26.6301 18.7344 26.7961 18.5879C26.9426 18.4512 27.1525 18.3828 27.426 18.3828C28.0998 18.3828 28.5148 18.7393 28.6711 19.4521C28.7102 19.6377 28.7297 19.8281 28.7297 20.0234C28.7297 21.0293 28.3439 21.8301 27.5725 22.4258C27.4553 22.5137 27.0402 22.7822 26.3273 23.2314C25.6437 23.6611 25.1994 24.1006 24.9943 24.5498C24.8479 24.8721 24.7746 25.2285 24.7746 25.6191V26H30.6193L30.634 23.334H30.3117L30.0627 24.0371C29.9357 24.3887 29.7404 24.5938 29.4768 24.6523C29.3596 24.6719 29.1984 24.6816 28.9934 24.6816H25.6389ZM33.5566 21.1221C33.5566 20.7412 33.3857 20.4629 33.0439 20.2871C32.9072 20.2188 32.7656 20.1846 32.6191 20.1846C32.2383 20.1846 31.9648 20.3555 31.7988 20.6973C31.7305 20.834 31.6963 20.9756 31.6963 21.1221C31.6963 21.5127 31.8672 21.791 32.209 21.957C32.3457 22.0156 32.4824 22.0449 32.6191 22.0449C33 22.0449 33.2783 21.8789 33.4541 21.5469C33.5225 21.4102 33.5566 21.2686 33.5566 21.1221ZM33.5566 24.4912C33.5566 24.1104 33.3906 23.8271 33.0586 23.6416C32.9121 23.5537 32.7656 23.5098 32.6191 23.5098C32.2578 23.5098 31.9893 23.6855 31.8135 24.0371C31.7354 24.1836 31.6963 24.335 31.6963 24.4912C31.6963 24.8818 31.8672 25.1602 32.209 25.3262C32.3457 25.3848 32.4824 25.4141 32.6191 25.4141C33 25.4141 33.2783 25.248 33.4541 24.916C33.5225 24.7793 33.5566 24.6377 33.5566 24.4912ZM35.117 24.6816C35.117 24.3203 35.4783 23.9346 36.201 23.5244C36.367 23.4365 36.6355 23.2998 37.0066 23.1143C38.0906 22.5576 38.8279 22.0889 39.2186 21.708C39.7068 21.2197 39.951 20.6924 39.951 20.126C39.951 19.1689 39.4334 18.5244 38.3982 18.1924C37.9783 18.0557 37.5193 17.9873 37.0213 17.9873C36.0057 17.9873 35.2439 18.2412 34.7361 18.749C34.4334 19.0518 34.282 19.4131 34.282 19.833C34.282 20.3115 34.4578 20.6094 34.8094 20.7266C34.8973 20.7559 34.9852 20.7705 35.073 20.7705C35.5418 20.7705 35.825 20.5459 35.9227 20.0967C35.9422 19.9893 35.9568 19.8184 35.9666 19.584C36.0057 19.0664 36.1082 18.7344 36.2742 18.5879C36.4207 18.4512 36.6307 18.3828 36.9041 18.3828C37.5779 18.3828 37.993 18.7393 38.1492 19.4521C38.1883 19.6377 38.2078 19.8281 38.2078 20.0234C38.2078 21.0293 37.8221 21.8301 37.0506 22.4258C36.9334 22.5137 36.5184 22.7822 35.8055 23.2314C35.1219 23.6611 34.6775 24.1006 34.4725 24.5498C34.326 24.8721 34.2527 25.2285 34.2527 25.6191V26H40.0975L40.1121 23.334H39.7898L39.5408 24.0371C39.4139 24.3887 39.2186 24.5938 38.9549 24.6523C38.8377 24.6719 38.6766 24.6816 38.4715 24.6816H35.117ZM41.9215 24.6816C41.9215 24.3203 42.2828 23.9346 43.0055 23.5244C43.1715 23.4365 43.44 23.2998 43.8111 23.1143C44.8951 22.5576 45.6324 22.0889 46.023 21.708C46.5113 21.2197 46.7555 20.6924 46.7555 20.126C46.7555 19.1689 46.2379 18.5244 45.2027 18.1924C44.7828 18.0557 44.3238 17.9873 43.8258 17.9873C42.8102 17.9873 42.0484 18.2412 41.5406 18.749C41.2379 19.0518 41.0865 19.4131 41.0865 19.833C41.0865 20.3115 41.2623 20.6094 41.6139 20.7266C41.7018 20.7559 41.7896 20.7705 41.8775 20.7705C42.3463 20.7705 42.6295 20.5459 42.7271 20.0967C42.7467 19.9893 42.7613 19.8184 42.7711 19.584C42.8102 19.0664 42.9127 18.7344 43.0787 18.5879C43.2252 18.4512 43.4352 18.3828 43.7086 18.3828C44.3824 18.3828 44.7975 18.7393 44.9537 19.4521C44.9928 19.6377 45.0123 19.8281 45.0123 20.0234C45.0123 21.0293 44.6266 21.8301 43.8551 22.4258C43.7379 22.5137 43.3229 22.7822 42.61 23.2314C41.9264 23.6611 41.482 24.1006 41.277 24.5498C41.1305 24.8721 41.0572 25.2285 41.0572 25.6191V26H46.902L46.9166 23.334H46.5943L46.3453 24.0371C46.2184 24.3887 46.023 24.5938 45.7594 24.6523C45.6422 24.6719 45.4811 24.6816 45.276 24.6816H41.9215Z" fill="white"/>
<rect opacity="0.35" x="321.833" y="16.8333" width="21" height="10.3333" rx="2.16667" stroke="white"/>
<path opacity="0.4" d="M344.333 20V24C345.138 23.6612 345.662 22.8731 345.662 22C345.662 21.1269 345.138 20.3388 344.333 20Z" fill="white"/>
<rect x="323.333" y="18.3333" width="18" height="7.33333" rx="1.33333" fill="white"/>
<path fill-rule="evenodd" clip-rule="evenodd" d="M308.667 18.615C310.892 18.6151 313.031 19.4693 314.644 21.0008C314.765 21.1191 314.959 21.1176 315.079 20.9975L316.239 19.8272C316.3 19.7663 316.334 19.6837 316.333 19.5979C316.333 19.5121 316.298 19.4299 316.237 19.3697C312.005 15.3175 305.329 15.3175 301.097 19.3697C301.035 19.4299 301.001 19.512 301 19.5978C300.999 19.6837 301.033 19.7662 301.094 19.8272L302.255 20.9975C302.374 21.1178 302.568 21.1193 302.69 21.0008C304.302 19.4692 306.442 18.615 308.667 18.615ZM308.667 22.4226C309.889 22.4226 311.068 22.8765 311.974 23.6963C312.097 23.8126 312.29 23.8101 312.409 23.6906L313.569 22.5203C313.63 22.4589 313.663 22.3756 313.663 22.2891C313.662 22.2025 313.626 22.12 313.564 22.0598C310.805 19.4954 306.532 19.4954 303.773 22.0598C303.71 22.12 303.675 22.2026 303.674 22.2891C303.673 22.3757 303.707 22.459 303.768 22.5203L304.927 23.6906C305.047 23.8101 305.24 23.8126 305.362 23.6963C306.268 22.877 307.446 22.4231 308.667 22.4226ZM310.989 24.9845C310.991 25.0712 310.957 25.1549 310.895 25.2157L308.89 27.2377C308.831 27.2971 308.751 27.3306 308.667 27.3306C308.583 27.3306 308.503 27.2971 308.445 27.2377L306.439 25.2157C306.377 25.1549 306.343 25.0712 306.345 24.9844C306.347 24.8976 306.384 24.8154 306.449 24.7573C307.729 23.675 309.605 23.675 310.886 24.7573C310.95 24.8155 310.988 24.8977 310.989 24.9845Z" fill="white"/>
<path fill-rule="evenodd" clip-rule="evenodd" d="M295 16.6667H294C293.448 16.6667 293 17.1145 293 17.6667V26.3334C293 26.8857 293.448 27.3334 294 27.3334H295C295.552 27.3334 296 26.8857 296 26.3334V17.6667C296 17.1145 295.552 16.6667 295 16.6667ZM289.333 19.0001H290.333C290.886 19.0001 291.333 19.4478 291.333 20.0001V26.3334C291.333 26.8857 290.886 27.3334 290.333 27.3334H289.333C288.781 27.3334 288.333 26.8857 288.333 26.3334V20.0001C288.333 19.4478 288.781 19.0001 289.333 19.0001ZM285.667 21.3334H284.667C284.114 21.3334 283.667 21.7811 283.667 22.3334V26.3334C283.667 26.8857 284.114 27.3334 284.667 27.3334H285.667C286.219 27.3334 286.667 26.8857 286.667 26.3334V22.3334C286.667 21.7811 286.219 21.3334 285.667 21.3334ZM281 23.3334H280C279.448 23.3334 279 23.7811 279 24.3334V26.3334C279 26.8857 279.448 27.3334 280 27.3334H281C281.552 27.3334 282 26.8857 282 26.3334V24.3334C282 23.7811 281.552 23.3334 281 23.3334Z" fill="white"/>
<rect x="26" y="98" width="324" height="657" rx="37" fill="white"/>
<line x1="53" y1="493.5" x2="182" y2="493.5" stroke="#C4C4C4"/>
<line x1="198" y1="493.5" x2="327" y2="493.5" stroke="#C4C4C4"/>
<path d="M124.96 460.496H126.196V456.764H129.964V460.496H131.212V452.276H129.964V455.744H126.196V452.276H124.96V460.496ZM134.076 460.604C134.868 460.604 135.372 460.34 135.66 459.98H135.732L135.84 460.496H136.812V456.068C136.812 454.832 136.008 454.256 134.628 454.256C133.872 454.256 133.248 454.376 132.684 454.604V455.432C133.056 455.348 133.56 455.252 134.16 455.252C135.24 455.252 135.624 455.456 135.624 456.368V456.896L134.088 457.076C132.9 457.232 132.18 457.772 132.18 458.864C132.18 460.052 132.972 460.604 134.076 460.604ZM134.388 459.74C133.776 459.74 133.38 459.44 133.38 458.816C133.38 458.18 133.704 457.916 134.352 457.844L135.624 457.712V459.344C135.384 459.572 134.892 459.74 134.388 459.74ZM139.519 460.496H140.719L142.951 454.376H141.799L140.179 459.02H140.143L138.547 454.376H137.275L139.519 460.496ZM143.573 460.496H144.749V454.376H143.573V460.496ZM143.561 453.236H144.761V452.084H143.561V453.236ZM145.976 460.496H147.152V455.648C147.572 455.444 148.16 455.264 148.676 455.264C149.6 455.264 149.792 455.54 149.792 456.212V460.496H150.98V455.936C150.98 454.748 150.404 454.256 149.216 454.256C148.472 454.256 147.68 454.544 147.164 454.904H147.116V454.376H145.976V460.496ZM154.315 462.272C156.439 462.272 157.315 461.576 157.315 460.448C157.315 459.26 156.499 458.852 155.359 458.852H153.679C153.283 458.852 153.115 458.828 153.115 458.516C153.115 458.36 153.211 458.204 153.343 458.072C153.655 458.168 153.991 458.204 154.339 458.204C155.671 458.204 156.691 457.592 156.691 456.308V456.188C156.691 455.78 156.583 455.444 156.367 455.204H157.351V454.352H155.275C154.987 454.292 154.687 454.256 154.351 454.256C152.959 454.256 151.975 454.964 151.975 456.236V456.356C151.975 457.04 152.287 457.52 152.743 457.832C152.263 458.168 152.035 458.528 152.035 458.96C152.035 459.368 152.311 459.512 152.659 459.632V459.692C152.035 459.908 151.519 460.316 151.519 460.952C151.519 461.864 152.431 462.272 154.315 462.272ZM154.291 461.396C153.175 461.396 152.731 461.264 152.731 460.784C152.731 460.328 153.031 460.052 153.439 459.92H155.083C155.803 459.92 156.091 460.124 156.091 460.628C156.091 461.216 155.623 461.396 154.291 461.396ZM154.339 457.388C153.619 457.388 153.139 457.052 153.139 456.332V456.164C153.139 455.468 153.595 455.096 154.339 455.096C155.071 455.096 155.539 455.42 155.539 456.188V456.356C155.539 457.052 155.107 457.388 154.339 457.388ZM162.659 460.556C163.223 460.556 163.499 460.436 163.751 460.328V459.536C163.511 459.572 163.247 459.608 162.995 459.608C162.335 459.608 162.155 459.404 162.155 458.852V455.324H163.631V454.376H162.155V452.936H160.967V454.376H160.103V455.324H160.967V459.02C160.967 460.136 161.639 460.556 162.659 460.556ZM164.501 460.496H165.677V455.816C166.097 455.54 166.661 455.372 167.237 455.372C167.357 455.372 167.561 455.384 167.717 455.408V454.352C167.657 454.316 167.477 454.304 167.333 454.304C166.673 454.304 166.049 454.652 165.689 455.06H165.641V454.376H164.501V460.496ZM170.807 460.604C172.475 460.604 173.639 459.452 173.639 457.508V457.328C173.639 455.396 172.595 454.256 170.819 454.256C169.115 454.256 167.963 455.42 167.963 457.364V457.568C167.963 459.476 168.995 460.604 170.807 460.604ZM170.819 459.68C169.907 459.68 169.175 459.2 169.175 457.58V457.256C169.175 455.912 169.763 455.204 170.795 455.204C171.683 455.204 172.403 455.684 172.403 457.304V457.628C172.403 458.972 171.815 459.68 170.819 459.68ZM176.266 460.604C177.034 460.604 177.646 460.328 178.15 459.968H178.21L178.33 460.496H179.338V454.376H178.162V459.212C177.742 459.404 177.262 459.608 176.662 459.608C175.834 459.608 175.594 459.332 175.594 458.612V454.376H174.406V458.816C174.406 460.004 175.066 460.604 176.266 460.604ZM182.819 460.64C184.871 460.64 185.951 459.476 185.951 457.4V457.232C185.951 454.952 184.727 454.256 183.599 454.256C182.783 454.256 182.219 454.484 181.751 454.772H181.691V451.736H180.515V460.316C181.055 460.508 182.075 460.64 182.819 460.64ZM182.903 459.692C182.315 459.692 181.943 459.584 181.691 459.488V455.576C181.967 455.444 182.483 455.252 183.023 455.252C184.187 455.252 184.715 455.756 184.715 457.328V457.58C184.715 459.236 183.863 459.692 182.903 459.692ZM186.811 460.496H187.987V451.736H186.811V460.496ZM191.819 460.604C192.839 460.604 193.547 460.292 193.931 460.016V459.188C193.367 459.44 192.839 459.632 192.035 459.632C190.835 459.632 190.151 459.164 190.067 457.76H194.123V457.184C194.123 455.252 193.319 454.256 191.591 454.256C190.115 454.256 188.855 455.252 188.855 457.352V457.508C188.855 459.428 189.839 460.604 191.819 460.604ZM191.543 455.192C192.431 455.192 192.887 455.66 192.887 456.896H190.067C190.163 455.528 190.895 455.192 191.543 455.192ZM197.824 460.496H202.624V459.464H199.06V452.276H197.824V460.496ZM205.838 460.604C207.506 460.604 208.67 459.452 208.67 457.508V457.328C208.67 455.396 207.626 454.256 205.85 454.256C204.146 454.256 202.994 455.42 202.994 457.364V457.568C202.994 459.476 204.026 460.604 205.838 460.604ZM205.85 459.68C204.938 459.68 204.206 459.2 204.206 457.58V457.256C204.206 455.912 204.794 455.204 205.826 455.204C206.714 455.204 207.434 455.684 207.434 457.304V457.628C207.434 458.972 206.846 459.68 205.85 459.68ZM211.669 462.272C213.793 462.272 214.669 461.576 214.669 460.448C214.669 459.26 213.853 458.852 212.713 458.852H211.033C210.637 458.852 210.469 458.828 210.469 458.516C210.469 458.36 210.565 458.204 210.697 458.072C211.009 458.168 211.345 458.204 211.693 458.204C213.025 458.204 214.045 457.592 214.045 456.308V456.188C214.045 455.78 213.937 455.444 213.721 455.204H214.705V454.352H212.629C212.341 454.292 212.041 454.256 211.705 454.256C210.313 454.256 209.329 454.964 209.329 456.236V456.356C209.329 457.04 209.641 457.52 210.097 457.832C209.617 458.168 209.389 458.528 209.389 458.96C209.389 459.368 209.665 459.512 210.013 459.632V459.692C209.389 459.908 208.873 460.316 208.873 460.952C208.873 461.864 209.785 462.272 211.669 462.272ZM211.645 461.396C210.529 461.396 210.085 461.264 210.085 460.784C210.085 460.328 210.385 460.052 210.793 459.92H212.437C213.157 459.92 213.445 460.124 213.445 460.628C213.445 461.216 212.977 461.396 211.645 461.396ZM211.693 457.388C210.973 457.388 210.493 457.052 210.493 456.332V456.164C210.493 455.468 210.949 455.096 211.693 455.096C212.425 455.096 212.893 455.42 212.893 456.188V456.356C212.893 457.052 212.461 457.388 211.693 457.388ZM217.554 462.272C219.678 462.272 220.554 461.576 220.554 460.448C220.554 459.26 219.738 458.852 218.598 458.852H216.918C216.522 458.852 216.354 458.828 216.354 458.516C216.354 458.36 216.45 458.204 216.582 458.072C216.894 458.168 217.23 458.204 217.578 458.204C218.91 458.204 219.93 457.592 219.93 456.308V456.188C219.93 455.78 219.822 455.444 219.606 455.204H220.59V454.352H218.514C218.226 454.292 217.926 454.256 217.59 454.256C216.198 454.256 215.214 454.964 215.214 456.236V456.356C215.214 457.04 215.526 457.52 215.982 457.832C215.502 458.168 215.274 458.528 215.274 458.96C215.274 459.368 215.55 459.512 215.898 459.632V459.692C215.274 459.908 214.758 460.316 214.758 460.952C214.758 461.864 215.67 462.272 217.554 462.272ZM217.53 461.396C216.414 461.396 215.97 461.264 215.97 460.784C215.97 460.328 216.27 460.052 216.678 459.92H218.322C219.042 459.92 219.33 460.124 219.33 460.628C219.33 461.216 218.862 461.396 217.53 461.396ZM217.578 457.388C216.858 457.388 216.378 457.052 216.378 456.332V456.164C216.378 455.468 216.834 455.096 217.578 455.096C218.31 455.096 218.778 455.42 218.778 456.188V456.356C218.778 457.052 218.346 457.388 217.578 457.388ZM221.162 460.496H222.338V454.376H221.162V460.496ZM221.15 453.236H222.35V452.084H221.15V453.236ZM223.566 460.496H224.742V455.648C225.162 455.444 225.75 455.264 226.266 455.264C227.19 455.264 227.382 455.54 227.382 456.212V460.496H228.57V455.936C228.57 454.748 227.994 454.256 226.806 454.256C226.062 454.256 225.27 454.544 224.754 454.904H224.706V454.376H223.566V460.496ZM231.904 462.272C234.028 462.272 234.904 461.576 234.904 460.448C234.904 459.26 234.088 458.852 232.948 458.852H231.268C230.872 458.852 230.704 458.828 230.704 458.516C230.704 458.36 230.8 458.204 230.932 458.072C231.244 458.168 231.58 458.204 231.928 458.204C233.26 458.204 234.28 457.592 234.28 456.308V456.188C234.28 455.78 234.172 455.444 233.956 455.204H234.94V454.352H232.864C232.576 454.292 232.276 454.256 231.94 454.256C230.548 454.256 229.564 454.964 229.564 456.236V456.356C229.564 457.04 229.876 457.52 230.332 457.832C229.852 458.168 229.624 458.528 229.624 458.96C229.624 459.368 229.9 459.512 230.248 459.632V459.692C229.624 459.908 229.108 460.316 229.108 460.952C229.108 461.864 230.02 462.272 231.904 462.272ZM231.88 461.396C230.764 461.396 230.32 461.264 230.32 460.784C230.32 460.328 230.62 460.052 231.028 459.92H232.672C233.392 459.92 233.68 460.124 233.68 460.628C233.68 461.216 233.212 461.396 231.88 461.396ZM231.928 457.388C231.208 457.388 230.728 457.052 230.728 456.332V456.164C230.728 455.468 231.184 455.096 231.928 455.096C232.66 455.096 233.128 455.42 233.128 456.188V456.356C233.128 457.052 232.696 457.388 231.928 457.388ZM238.256 460.496H239.432V454.376H238.256V460.496ZM238.244 453.236H239.444V452.084H238.244V453.236ZM240.66 460.496H241.836V455.648C242.256 455.444 242.844 455.264 243.36 455.264C244.284 455.264 244.476 455.54 244.476 456.212V460.496H245.664V455.936C245.664 454.748 245.088 454.256 243.9 454.256C243.156 454.256 242.364 454.544 241.848 454.904H241.8V454.376H240.66V460.496ZM247.607 458.12H248.711V457.64C248.711 457.076 249.023 456.836 249.611 456.38C250.475 455.648 250.823 455.096 250.823 454.076C250.823 452.612 249.743 452.036 248.435 452.036C247.643 452.036 247.067 452.156 246.527 452.396V453.32C247.031 453.152 247.415 453.02 248.123 453.02C249.023 453.02 249.539 453.32 249.539 454.136C249.539 454.808 249.335 455.324 248.831 455.744C248.027 456.38 247.607 456.716 247.607 457.544V458.12ZM247.511 460.628H248.831V459.332H247.511V460.628Z" fill="#283593"/>
<path d="M187.276 497.604C188.944 497.604 190.108 496.452 190.108 494.508V494.328C190.108 492.396 189.064 491.256 187.288 491.256C185.584 491.256 184.432 492.42 184.432 494.364V494.568C184.432 496.476 185.464 497.604 187.276 497.604ZM187.288 496.68C186.376 496.68 185.644 496.2 185.644 494.58V494.256C185.644 492.912 186.232 492.204 187.264 492.204C188.152 492.204 188.872 492.684 188.872 494.304V494.628C188.872 495.972 188.284 496.68 187.288 496.68ZM190.911 497.496H192.087V492.816C192.507 492.54 193.071 492.372 193.647 492.372C193.767 492.372 193.971 492.384 194.127 492.408V491.352C194.067 491.316 193.887 491.304 193.743 491.304C193.083 491.304 192.459 491.652 192.099 492.06H192.051V491.376H190.911V497.496Z" fill="#283593"/>
<g clip-path="url(#clip1)">
<path d="M210.384 228.497C208.403 226.59 205.53 225.969 202.951 226.892C202.222 227.139 201.691 227.778 201.577 228.547L201.004 232.526C200.136 238.536 195.05 242.999 189.043 243.023H180.861C179.922 243.024 179.104 243.67 178.877 244.591L172.741 269.408C172.468 270.516 173.134 271.639 174.231 271.915C174.392 271.956 174.558 271.977 174.725 271.977H184.952C185.891 271.977 186.709 271.33 186.936 270.409L190.638 255.432H198.615C204.738 255.453 210.08 251.232 211.542 245.22L213.051 239.102C214.114 235.339 213.095 231.29 210.384 228.497Z" fill="#03A9F4"/>
<path d="M144.045 296.794C142.915 296.794 142 295.868 142 294.725C142 294.557 142.021 294.389 142.061 294.226L144.106 285.995V285.908L146.152 277.681C146.379 276.76 147.197 276.113 148.136 276.113H153.339C156.163 276.113 158.453 278.427 158.454 281.282C158.454 281.705 158.403 282.127 158.301 282.537L157.79 284.605C157.221 286.907 155.175 288.522 152.828 288.522H147.69L146.033 295.227C145.805 296.149 144.985 296.796 144.045 296.794ZM148.712 284.385H152.828C153.297 284.384 153.705 284.06 153.818 283.6L154.329 281.531C154.469 280.981 154.141 280.419 153.596 280.278C153.512 280.256 153.426 280.245 153.339 280.245H149.735L148.712 284.385Z" fill="#283593"/>
<path d="M165.918 296.794H163.005C159.874 296.795 157.335 294.229 157.334 291.063C157.334 290.594 157.391 290.126 157.503 289.671L157.773 288.571C158.378 286.102 160.575 284.371 163.091 284.381H166.004C169.135 284.387 171.669 286.958 171.664 290.124C171.663 290.59 171.606 291.055 171.493 291.508L171.224 292.608C170.618 295.071 168.428 296.799 165.918 296.794ZM161.475 290.677C161.265 291.532 161.781 292.398 162.627 292.611C162.751 292.642 162.878 292.658 163.005 292.658H165.918C166.548 292.66 167.099 292.226 167.251 291.607L167.521 290.507C167.731 289.651 167.216 288.785 166.369 288.573C166.246 288.542 166.119 288.526 165.991 288.526H163.079C162.448 288.524 161.898 288.957 161.745 289.576L161.475 290.677Z" fill="#283593"/>
<path d="M168.59 296.794C167.46 296.794 166.545 295.867 166.545 294.725C166.545 294.557 166.565 294.389 166.606 294.225L168.651 285.953C168.925 284.844 170.035 284.169 171.132 284.445C172.229 284.722 172.897 285.845 172.623 286.954L170.578 295.226C170.35 296.149 169.53 296.796 168.59 296.794Z" fill="#283593"/>
<path d="M193.134 296.794C192.004 296.793 191.089 295.867 191.089 294.725C191.089 294.556 191.109 294.389 191.15 294.225L193.195 285.994V285.907L195.241 277.68C195.468 276.759 196.286 276.113 197.225 276.113H202.428C205.252 276.112 207.542 278.426 207.543 281.282C207.543 281.705 207.492 282.126 207.39 282.536L206.879 284.605C206.31 286.907 204.264 288.522 201.917 288.522H196.779L195.122 295.226C194.894 296.149 194.074 296.795 193.134 296.794ZM197.801 284.385H201.921C202.39 284.384 202.798 284.06 202.911 283.599L203.422 281.531C203.562 280.98 203.234 280.419 202.689 280.277C202.605 280.255 202.519 280.244 202.432 280.245H198.824L197.801 284.385Z" fill="#03A9F4"/>
<path d="M215.007 296.794H212.094C208.963 296.794 206.424 294.228 206.423 291.062C206.423 290.593 206.48 290.126 206.592 289.671L206.862 288.571C207.467 286.101 209.664 284.371 212.18 284.381H215.092C218.224 284.38 220.763 286.946 220.764 290.112C220.764 290.581 220.707 291.048 220.594 291.503L220.324 292.604C219.719 295.073 217.523 296.803 215.007 296.794ZM210.564 290.676C210.354 291.532 210.87 292.398 211.716 292.61C211.84 292.641 211.966 292.657 212.094 292.657H215.007C215.637 292.659 216.188 292.226 216.34 291.607L216.61 290.506C216.82 289.651 216.305 288.785 215.458 288.572C215.334 288.541 215.208 288.526 215.08 288.525H212.168C211.537 288.523 210.987 288.957 210.834 289.576L210.564 290.676Z" fill="#03A9F4"/>
<path d="M217.679 296.793C216.549 296.793 215.634 295.867 215.634 294.725C215.634 294.556 215.654 294.388 215.695 294.225L217.74 285.952C218.013 284.843 219.124 284.168 220.221 284.445C221.318 284.721 221.986 285.844 221.712 286.953L219.667 295.226C219.439 296.148 218.619 296.795 217.679 296.793Z" fill="#03A9F4"/>
<path d="M180.862 294.726C180.178 294.726 179.539 294.379 179.16 293.804L175.069 287.599C174.442 286.649 174.696 285.365 175.636 284.731C176.576 284.097 177.846 284.353 178.473 285.304L182.564 291.508C183.192 292.457 182.94 293.742 182.001 294.377C181.664 294.605 181.267 294.726 180.862 294.726Z" fill="#283593"/>
<path d="M176.772 300.932C175.642 300.931 174.727 300.005 174.727 298.863C174.727 298.379 174.895 297.911 175.201 297.54L185.428 285.131C186.152 284.254 187.442 284.136 188.31 284.868C189.177 285.601 189.293 286.905 188.569 287.782L178.343 300.191C177.954 300.661 177.378 300.932 176.772 300.932Z" fill="#283593"/>
<path d="M225.86 296.794C224.73 296.794 223.815 295.867 223.815 294.725C223.815 294.557 223.835 294.389 223.876 294.225L227.966 277.681C228.24 276.572 229.35 275.897 230.448 276.173C231.544 276.45 232.212 277.572 231.939 278.682L227.848 295.226C227.62 296.149 226.8 296.796 225.86 296.794Z" fill="#03A9F4"/>
<path d="M203.631 217.648C201.665 215.372 198.822 214.067 195.834 214.07H172.68C171.691 214.07 170.843 214.786 170.667 215.77L162.486 261.268C162.285 262.392 163.023 263.468 164.134 263.671C164.254 263.693 164.376 263.704 164.498 263.704H176.771C177.709 263.704 178.527 263.058 178.755 262.137L182.461 247.159H189.043C197.088 247.127 203.9 241.147 205.058 233.096L206.081 226.027C206.502 223.007 205.609 219.951 203.631 217.648Z" fill="#283593"/>
</g>
<path d="M41 57L33 65.5L41 74" stroke="white" stroke-width="2" stroke-linecap="round" stroke-linejoin="round"/>
<path d="M52.704 73.992H54.576L58.272 61.104H58.32L61.92 73.992H63.768L67.776 57.888H66.048L62.88 71.016H62.856L59.112 57.888H57.576L53.808 71.016H53.736L50.568 57.888H48.672L52.704 73.992ZM72.0527 74.208C73.6607 74.208 74.6687 73.632 75.2207 72.96H75.3407L75.5327 73.992H77.0207V65.376C77.0207 62.952 75.5567 61.872 72.9407 61.872C71.5727 61.872 70.4207 62.088 69.3887 62.52V63.84C70.1327 63.624 71.0687 63.456 72.2207 63.456C74.3567 63.456 75.1727 63.936 75.1727 65.784V67.032L71.9567 67.416C69.6767 67.68 68.3327 68.784 68.3327 70.872C68.3327 73.104 69.8927 74.208 72.0527 74.208ZM72.5087 72.768C71.1407 72.768 70.2527 72.12 70.2527 70.824C70.2527 69.456 70.9727 68.856 72.4367 68.712L75.1727 68.4V71.904C74.6687 72.408 73.6127 72.768 72.5087 72.768ZM80.109 73.992H81.957V56.808H80.109V73.992ZM85.1385 73.992H86.9865V56.808H85.1385V73.992ZM95.016 74.208C96.936 74.208 98.304 73.608 99.024 73.104V71.736C97.944 72.24 96.888 72.624 95.304 72.624C92.76 72.624 91.344 71.472 91.248 68.496H99.36V67.464C99.36 63.768 97.824 61.872 94.56 61.872C91.824 61.872 89.376 63.72 89.376 67.872V68.208C89.376 71.928 91.272 74.208 95.016 74.208ZM94.512 63.36C96.456 63.36 97.44 64.44 97.44 67.032H91.248C91.44 64.224 93.024 63.36 94.512 63.36ZM105.597 74.136C106.629 74.136 107.133 73.872 107.613 73.656V72.408C107.133 72.552 106.581 72.624 106.077 72.624C104.709 72.624 104.325 72.168 104.325 71.016V63.624H107.373V62.112H104.325V59.28H102.501V62.112H100.797V63.624H102.501V71.304C102.501 73.32 103.725 74.136 105.597 74.136Z" fill="white"/>
<g filter="url(#filter0_d)">
<rect x="87" y="337" width="192" height="24" fill="white"/>
<rect x="87.5" y="337.5" width="191" height="23" stroke="#979494"/>
</g>
<path d="M96.22 355.58C98.418 355.58 99.37 354.488 99.37 352.85C99.37 351.268 98.488 350.68 97.102 350.204L96.178 349.91C95.114 349.546 94.778 349.154 94.778 348.258C94.778 347.362 95.422 346.802 96.57 346.802C97.606 346.802 98.348 347.068 98.894 347.32V346.382C98.376 346.13 97.718 345.864 96.612 345.864C94.652 345.864 93.686 346.9 93.686 348.356C93.686 349.784 94.428 350.456 95.744 350.89L96.654 351.212C97.788 351.576 98.25 351.968 98.25 352.934C98.25 353.956 97.62 354.628 96.178 354.628C95.184 354.628 94.26 354.376 93.546 354.012V354.95C94.176 355.3 95.072 355.58 96.22 355.58ZM102.363 355.538C103.301 355.538 103.889 355.202 104.211 354.81H104.281L104.393 355.412H105.261V350.386C105.261 348.972 104.407 348.342 102.881 348.342C102.083 348.342 101.411 348.468 100.809 348.72V349.49C101.243 349.364 101.789 349.266 102.461 349.266C103.707 349.266 104.183 349.546 104.183 350.624V351.352L102.307 351.576C100.977 351.73 100.193 352.374 100.193 353.592C100.193 354.894 101.103 355.538 102.363 355.538ZM102.629 354.698C101.831 354.698 101.313 354.32 101.313 353.564C101.313 352.766 101.733 352.416 102.587 352.332L104.183 352.15V354.194C103.889 354.488 103.273 354.698 102.629 354.698ZM106.864 355.412H107.928V349.77C108.488 349.504 109.104 349.266 109.692 349.266C110.616 349.266 110.952 349.616 110.952 350.456V355.412H112.016V350.232C112.016 350.064 112.002 349.938 111.974 349.77C112.632 349.476 113.22 349.266 113.766 349.266C114.704 349.266 115.04 349.616 115.04 350.456V355.412H116.09V350.232C116.09 348.888 115.39 348.342 114.186 348.342C113.402 348.342 112.59 348.622 111.834 349.112H111.778C111.456 348.594 110.896 348.342 110.112 348.342C109.328 348.342 108.586 348.664 107.942 349.07H107.886V348.468H106.864V355.412ZM119.388 355.538C120.326 355.538 120.914 355.202 121.236 354.81H121.306L121.418 355.412H122.286V350.386C122.286 348.972 121.432 348.342 119.906 348.342C119.108 348.342 118.436 348.468 117.834 348.72V349.49C118.268 349.364 118.814 349.266 119.486 349.266C120.732 349.266 121.208 349.546 121.208 350.624V351.352L119.332 351.576C118.002 351.73 117.218 352.374 117.218 353.592C117.218 354.894 118.128 355.538 119.388 355.538ZM119.654 354.698C118.856 354.698 118.338 354.32 118.338 353.564C118.338 352.766 118.758 352.416 119.612 352.332L121.208 352.15V354.194C120.914 354.488 120.298 354.698 119.654 354.698ZM123.89 355.412H124.954V349.77C125.528 349.504 126.256 349.266 126.914 349.266C128.02 349.266 128.314 349.616 128.314 350.456V355.412H129.378V350.232C129.378 348.888 128.72 348.342 127.362 348.342C126.508 348.342 125.612 348.65 124.968 349.07H124.912V348.468H123.89V355.412ZM133.186 355.496C133.788 355.496 134.082 355.342 134.362 355.216V354.488C134.082 354.572 133.76 354.614 133.466 354.614C132.668 354.614 132.444 354.348 132.444 353.676V349.364H134.222V348.482H132.444V346.83H131.38V348.482H130.386V349.364H131.38V353.844C131.38 355.02 132.094 355.496 133.186 355.496ZM135.474 355.412H136.538V349.784C137.112 349.504 137.84 349.266 138.498 349.266C139.604 349.266 139.898 349.616 139.898 350.456V355.412H140.962V350.246C140.962 348.902 140.304 348.342 138.946 348.342C138.092 348.342 137.21 348.636 136.608 349.07H136.538V345.388H135.474V355.412ZM144.266 355.538C145.204 355.538 145.792 355.202 146.114 354.81H146.184L146.296 355.412H147.164V350.386C147.164 348.972 146.31 348.342 144.784 348.342C143.986 348.342 143.314 348.468 142.712 348.72V349.49C143.146 349.364 143.692 349.266 144.364 349.266C145.61 349.266 146.086 349.546 146.086 350.624V351.352L144.21 351.576C142.88 351.73 142.096 352.374 142.096 353.592C142.096 354.894 143.006 355.538 144.266 355.538ZM144.532 354.698C143.734 354.698 143.216 354.32 143.216 353.564C143.216 352.766 143.636 352.416 144.49 352.332L146.086 352.15V354.194C145.792 354.488 145.176 354.698 144.532 354.698ZM148.334 355.762H149.552V354.516H148.334V355.762ZM151.7 355.412H152.806V351.198H156.152V350.246H152.806V346.956H157.146V346.018H151.7V355.412ZM158.329 355.412H159.407V349.952C159.897 349.602 160.569 349.35 161.269 349.35C161.381 349.35 161.591 349.364 161.773 349.392V348.426C161.703 348.412 161.507 348.398 161.353 348.398C160.569 348.398 159.813 348.804 159.421 349.252H159.351V348.468H158.329V355.412ZM164.304 355.538C165.242 355.538 165.83 355.202 166.152 354.81H166.222L166.334 355.412H167.202V350.386C167.202 348.972 166.348 348.342 164.822 348.342C164.024 348.342 163.352 348.468 162.75 348.72V349.49C163.184 349.364 163.73 349.266 164.402 349.266C165.648 349.266 166.124 349.546 166.124 350.624V351.352L164.248 351.576C162.918 351.73 162.134 352.374 162.134 353.592C162.134 354.894 163.044 355.538 164.304 355.538ZM164.57 354.698C163.772 354.698 163.254 354.32 163.254 353.564C163.254 352.766 163.674 352.416 164.528 352.332L166.124 352.15V354.194C165.83 354.488 165.214 354.698 164.57 354.698ZM170.57 355.524C172.096 355.524 173.02 354.796 173.02 353.48C173.02 352.276 172.474 351.828 171.144 351.478L170.444 351.282C169.702 351.072 169.408 350.82 169.408 350.218C169.408 349.574 169.87 349.252 170.808 349.252C171.578 349.252 172.278 349.434 172.642 349.616V348.748C172.278 348.552 171.676 348.342 170.752 348.342C169.156 348.342 168.386 349.14 168.386 350.316C168.386 351.492 169.072 351.954 170.08 352.234L170.766 352.416C171.648 352.668 171.97 352.948 171.97 353.592C171.97 354.222 171.522 354.614 170.416 354.614C169.436 354.614 168.932 354.404 168.33 354.18V355.034C168.904 355.356 169.66 355.524 170.57 355.524ZM177.064 355.538C178.184 355.538 178.982 355.188 179.402 354.894V354.096C178.772 354.39 178.156 354.614 177.232 354.614C175.748 354.614 174.922 353.942 174.866 352.206H179.598V351.604C179.598 349.448 178.702 348.342 176.798 348.342C175.202 348.342 173.774 349.42 173.774 351.842V352.038C173.774 354.208 174.88 355.538 177.064 355.538ZM176.77 349.21C177.904 349.21 178.478 349.84 178.478 351.352H174.866C174.978 349.714 175.902 349.21 176.77 349.21ZM180.8 355.412H181.878V349.952C182.368 349.602 183.04 349.35 183.74 349.35C183.852 349.35 184.062 349.364 184.244 349.392V348.426C184.174 348.412 183.978 348.398 183.824 348.398C183.04 348.398 182.284 348.804 181.892 349.252H181.822V348.468H180.8V355.412ZM190.398 357.442C191.602 357.442 192.652 357.176 193.45 356.826V356.126C192.82 356.336 191.7 356.672 190.412 356.672C187.374 356.672 185.904 355.034 185.904 352.374C185.904 349.35 187.64 346.914 190.93 346.914C193.618 346.914 194.892 348.566 194.892 350.932C194.892 352.99 194.164 354.124 192.96 354.124C192.428 354.124 192.274 353.83 192.372 353.326L193.198 348.93H192.204L192.12 349.35H192.064C191.77 349.07 191.252 348.804 190.58 348.804C188.788 348.804 187.682 350.386 187.682 352.682C187.682 354.054 188.354 354.908 189.572 354.908C190.314 354.908 190.902 354.488 191.294 354.04H191.336C191.462 354.558 191.91 354.908 192.792 354.908C194.668 354.908 195.816 353.396 195.816 350.848C195.816 348.132 193.968 346.116 190.958 346.116C187.066 346.116 184.994 349.196 184.994 352.388C184.994 355.566 186.94 357.442 190.398 357.442ZM189.852 354.082C189.138 354.082 188.76 353.606 188.76 352.668C188.76 350.932 189.25 349.644 190.58 349.644C191.21 349.644 191.672 349.882 191.896 350.148L191.336 353.354C190.972 353.718 190.496 354.082 189.852 354.082ZM199.469 357.47C201.835 357.47 202.787 356.532 202.787 355.342C202.787 354.054 201.849 353.676 200.589 353.676H198.671C198.209 353.676 197.985 353.536 197.985 353.158C197.985 352.934 198.125 352.766 198.307 352.598C198.671 352.724 199.063 352.794 199.497 352.794C200.953 352.794 202.101 352.052 202.101 350.568V350.554C202.101 350.008 201.919 349.588 201.597 349.28H202.843V348.454H200.491C200.183 348.384 199.861 348.342 199.511 348.342C197.985 348.342 196.893 349.14 196.893 350.582V350.61C196.893 351.436 197.229 351.996 197.761 352.346C197.229 352.738 196.977 353.06 196.977 353.494C196.977 353.956 197.285 354.25 197.677 354.362V354.432C196.963 354.67 196.361 355.104 196.361 355.846C196.361 356.854 197.355 357.47 199.469 357.47ZM199.441 356.63C198.069 356.63 197.481 356.322 197.481 355.706C197.481 355.118 197.887 354.81 198.419 354.628H200.421C201.331 354.628 201.667 354.838 201.667 355.482C201.667 356.21 201.079 356.63 199.441 356.63ZM199.497 351.954C198.573 351.954 197.957 351.506 197.957 350.596V350.526C197.957 349.658 198.545 349.154 199.497 349.154C200.435 349.154 201.023 349.588 201.023 350.54V350.61C201.023 351.506 200.463 351.954 199.497 351.954ZM203.721 355.412H204.785V349.77C205.345 349.504 205.961 349.266 206.549 349.266C207.473 349.266 207.809 349.616 207.809 350.456V355.412H208.873V350.232C208.873 350.064 208.859 349.938 208.831 349.77C209.489 349.476 210.077 349.266 210.623 349.266C211.561 349.266 211.897 349.616 211.897 350.456V355.412H212.947V350.232C212.947 348.888 212.247 348.342 211.043 348.342C210.259 348.342 209.447 348.622 208.691 349.112H208.635C208.313 348.594 207.753 348.342 206.969 348.342C206.185 348.342 205.443 348.664 204.799 349.07H204.743V348.468H203.721V355.412ZM216.245 355.538C217.183 355.538 217.771 355.202 218.093 354.81H218.163L218.275 355.412H219.143V350.386C219.143 348.972 218.289 348.342 216.763 348.342C215.965 348.342 215.293 348.468 214.691 348.72V349.49C215.125 349.364 215.671 349.266 216.343 349.266C217.589 349.266 218.065 349.546 218.065 350.624V351.352L216.189 351.576C214.859 351.73 214.075 352.374 214.075 353.592C214.075 354.894 214.985 355.538 216.245 355.538ZM216.511 354.698C215.713 354.698 215.195 354.32 215.195 353.564C215.195 352.766 215.615 352.416 216.469 352.332L218.065 352.15V354.194C217.771 354.488 217.155 354.698 216.511 354.698ZM220.789 355.412H221.853V348.482H220.789V355.412ZM220.775 347.082H221.867V345.962H220.775V347.082ZM223.538 355.412H224.616V345.388H223.538V355.412ZM225.84 355.762H227.058V354.516H225.84V355.762ZM231.797 355.538C232.763 355.538 233.379 355.258 233.827 354.992V354.124C233.477 354.32 232.861 354.614 231.923 354.614C230.439 354.614 229.697 353.816 229.697 352.038V351.702C229.697 350.106 230.523 349.252 231.783 349.252C232.693 349.252 233.141 349.42 233.757 349.7V348.804C233.295 348.51 232.749 348.342 231.839 348.342C230.047 348.342 228.591 349.406 228.591 351.87V352.08C228.591 354.362 229.809 355.538 231.797 355.538ZM237.621 355.538C239.497 355.538 240.785 354.222 240.785 352.01V351.814C240.785 349.616 239.595 348.342 237.635 348.342C235.759 348.342 234.485 349.658 234.485 351.856V352.066C234.485 354.278 235.661 355.538 237.621 355.538ZM237.649 354.656C236.487 354.656 235.577 354.026 235.577 352.094V351.744C235.577 350.12 236.361 349.224 237.621 349.224C238.755 349.224 239.693 349.854 239.693 351.786V352.136C239.693 353.774 238.909 354.656 237.649 354.656ZM241.99 355.412H243.054V349.77C243.614 349.504 244.23 349.266 244.818 349.266C245.742 349.266 246.078 349.616 246.078 350.456V355.412H247.142V350.232C247.142 350.064 247.128 349.938 247.1 349.77C247.758 349.476 248.346 349.266 248.892 349.266C249.83 349.266 250.166 349.616 250.166 350.456V355.412H251.216V350.232C251.216 348.888 250.516 348.342 249.312 348.342C248.528 348.342 247.716 348.622 246.96 349.112H246.904C246.582 348.594 246.022 348.342 245.238 348.342C244.454 348.342 243.712 348.664 243.068 349.07H243.012V348.468H241.99V355.412Z" fill="#6C6A6A"/>
<g filter="url(#filter1_d)">
<rect x="87" y="375" width="192" height="24" fill="white"/>
<rect x="87.5" y="375.5" width="191" height="23" stroke="#979494"/>
</g>
<rect x="88.5" y="416.5" width="191" height="23" fill="#283593" stroke="white"/>
<rect x="91.5" y="517.5" width="191" height="23" fill="#ADADAD" stroke="white"/>
<path d="M96.184 388.952H96.996L96.968 387.454L98.2 388.252L98.592 387.538L97.318 386.894L98.592 386.236L98.2 385.522L96.968 386.32L96.996 384.808H96.184L96.226 386.32L94.994 385.522L94.616 386.236L95.876 386.894L94.616 387.538L94.994 388.252L96.226 387.454L96.184 388.952ZM100.971 388.952H101.783L101.755 387.454L102.987 388.252L103.379 387.538L102.105 386.894L103.379 386.236L102.987 385.522L101.755 386.32L101.783 384.808H100.971L101.013 386.32L99.7813 385.522L99.4033 386.236L100.663 386.894L99.4033 387.538L99.7813 388.252L101.013 387.454L100.971 388.952ZM105.759 388.952H106.571L106.543 387.454L107.775 388.252L108.167 387.538L106.893 386.894L108.167 386.236L107.775 385.522L106.543 386.32L106.571 384.808H105.759L105.801 386.32L104.569 385.522L104.191 386.236L105.451 386.894L104.191 387.538L104.569 388.252L105.801 387.454L105.759 388.952ZM110.546 388.952H111.358L111.33 387.454L112.562 388.252L112.954 387.538L111.68 386.894L112.954 386.236L112.562 385.522L111.33 386.32L111.358 384.808H110.546L110.588 386.32L109.356 385.522L108.978 386.236L110.238 386.894L108.978 387.538L109.356 388.252L110.588 387.454L110.546 388.952ZM115.333 388.952H116.145L116.117 387.454L117.349 388.252L117.741 387.538L116.467 386.894L117.741 386.236L117.349 385.522L116.117 386.32L116.145 384.808H115.333L115.375 386.32L114.143 385.522L113.765 386.236L115.025 386.894L113.765 387.538L114.143 388.252L115.375 387.454L115.333 388.952ZM120.121 388.952H120.933L120.905 387.454L122.137 388.252L122.529 387.538L121.255 386.894L122.529 386.236L122.137 385.522L120.905 386.32L120.933 384.808H120.121L120.163 386.32L118.931 385.522L118.553 386.236L119.813 386.894L118.553 387.538L118.931 388.252L120.163 387.454L120.121 388.952ZM124.908 388.952H125.72L125.692 387.454L126.924 388.252L127.316 387.538L126.042 386.894L127.316 386.236L126.924 385.522L125.692 386.32L125.72 384.808H124.908L124.95 386.32L123.718 385.522L123.34 386.236L124.6 386.894L123.34 387.538L123.718 388.252L124.95 387.454L124.908 388.952ZM129.695 388.952H130.507L130.479 387.454L131.711 388.252L132.103 387.538L130.829 386.894L132.103 386.236L131.711 385.522L130.479 386.32L130.507 384.808H129.695L129.737 386.32L128.505 385.522L128.127 386.236L129.387 386.894L128.127 387.538L128.505 388.252L129.737 387.454L129.695 388.952ZM134.483 388.952H135.295L135.267 387.454L136.499 388.252L136.891 387.538L135.617 386.894L136.891 386.236L136.499 385.522L135.267 386.32L135.295 384.808H134.483L134.525 386.32L133.293 385.522L132.915 386.236L134.175 386.894L132.915 387.538L133.293 388.252L134.525 387.454L134.483 388.952ZM139.27 388.952H140.082L140.054 387.454L141.286 388.252L141.678 387.538L140.404 386.894L141.678 386.236L141.286 385.522L140.054 386.32L140.082 384.808H139.27L139.312 386.32L138.08 385.522L137.702 386.236L138.962 386.894L137.702 387.538L138.08 388.252L139.312 387.454L139.27 388.952ZM144.057 388.952H144.869L144.841 387.454L146.073 388.252L146.465 387.538L145.191 386.894L146.465 386.236L146.073 385.522L144.841 386.32L144.869 384.808H144.057L144.099 386.32L142.867 385.522L142.489 386.236L143.749 386.894L142.489 387.538L142.867 388.252L144.099 387.454L144.057 388.952ZM148.844 388.952H149.656L149.628 387.454L150.86 388.252L151.252 387.538L149.978 386.894L151.252 386.236L150.86 385.522L149.628 386.32L149.656 384.808H148.844L148.886 386.32L147.654 385.522L147.276 386.236L148.536 386.894L147.276 387.538L147.654 388.252L148.886 387.454L148.844 388.952ZM153.632 388.952H154.444L154.416 387.454L155.648 388.252L156.04 387.538L154.766 386.894L156.04 386.236L155.648 385.522L154.416 386.32L154.444 384.808H153.632L153.674 386.32L152.442 385.522L152.064 386.236L153.324 386.894L152.064 387.538L152.442 388.252L153.674 387.454L153.632 388.952ZM158.419 388.952H159.231L159.203 387.454L160.435 388.252L160.827 387.538L159.553 386.894L160.827 386.236L160.435 385.522L159.203 386.32L159.231 384.808H158.419L158.461 386.32L157.229 385.522L156.851 386.236L158.111 386.894L156.851 387.538L157.229 388.252L158.461 387.454L158.419 388.952ZM163.206 388.952H164.018L163.99 387.454L165.222 388.252L165.614 387.538L164.34 386.894L165.614 386.236L165.222 385.522L163.99 386.32L164.018 384.808H163.206L163.248 386.32L162.016 385.522L161.638 386.236L162.898 386.894L161.638 387.538L162.016 388.252L163.248 387.454L163.206 388.952ZM167.994 388.952H168.806L168.778 387.454L170.01 388.252L170.402 387.538L169.128 386.894L170.402 386.236L170.01 385.522L168.778 386.32L168.806 384.808H167.994L168.036 386.32L166.804 385.522L166.426 386.236L167.686 386.894L166.426 387.538L166.804 388.252L168.036 387.454L167.994 388.952ZM172.781 388.952H173.593L173.565 387.454L174.797 388.252L175.189 387.538L173.915 386.894L175.189 386.236L174.797 385.522L173.565 386.32L173.593 384.808H172.781L172.823 386.32L171.591 385.522L171.213 386.236L172.473 386.894L171.213 387.538L171.591 388.252L172.823 387.454L172.781 388.952ZM177.568 388.952H178.38L178.352 387.454L179.584 388.252L179.976 387.538L178.702 386.894L179.976 386.236L179.584 385.522L178.352 386.32L178.38 384.808H177.568L177.61 386.32L176.378 385.522L176 386.236L177.26 386.894L176 387.538L176.378 388.252L177.61 387.454L177.568 388.952Z" fill="#6C6A6A"/>
<path d="M168.96 431.496H173.76V430.464H170.196V423.276H168.96V431.496ZM176.973 431.604C178.641 431.604 179.805 430.452 179.805 428.508V428.328C179.805 426.396 178.761 425.256 176.985 425.256C175.281 425.256 174.129 426.42 174.129 428.364V428.568C174.129 430.476 175.161 431.604 176.973 431.604ZM176.985 430.68C176.073 430.68 175.341 430.2 175.341 428.58V428.256C175.341 426.912 175.929 426.204 176.961 426.204C177.849 426.204 178.569 426.684 178.569 428.304V428.628C178.569 429.972 177.981 430.68 176.985 430.68ZM182.805 433.272C184.929 433.272 185.805 432.576 185.805 431.448C185.805 430.26 184.989 429.852 183.849 429.852H182.169C181.773 429.852 181.605 429.828 181.605 429.516C181.605 429.36 181.701 429.204 181.833 429.072C182.145 429.168 182.481 429.204 182.829 429.204C184.161 429.204 185.181 428.592 185.181 427.308V427.188C185.181 426.78 185.073 426.444 184.857 426.204H185.841V425.352H183.765C183.477 425.292 183.177 425.256 182.841 425.256C181.449 425.256 180.465 425.964 180.465 427.236V427.356C180.465 428.04 180.777 428.52 181.233 428.832C180.753 429.168 180.525 429.528 180.525 429.96C180.525 430.368 180.801 430.512 181.149 430.632V430.692C180.525 430.908 180.009 431.316 180.009 431.952C180.009 432.864 180.921 433.272 182.805 433.272ZM182.781 432.396C181.665 432.396 181.221 432.264 181.221 431.784C181.221 431.328 181.521 431.052 181.929 430.92H183.573C184.293 430.92 184.581 431.124 184.581 431.628C184.581 432.216 184.113 432.396 182.781 432.396ZM182.829 428.388C182.109 428.388 181.629 428.052 181.629 427.332V427.164C181.629 426.468 182.085 426.096 182.829 426.096C183.561 426.096 184.029 426.42 184.029 427.188V427.356C184.029 428.052 183.597 428.388 182.829 428.388ZM189.325 431.496H190.573V423.276H189.325V431.496ZM191.947 431.496H193.123V426.648C193.543 426.444 194.131 426.264 194.647 426.264C195.571 426.264 195.763 426.54 195.763 427.212V431.496H196.951V426.936C196.951 425.748 196.375 425.256 195.187 425.256C194.443 425.256 193.651 425.544 193.135 425.904H193.087V425.376H191.947V431.496Z" fill="white"/>
<path d="M173.808 532.64C175.764 532.64 176.652 531.68 176.652 530.18C176.652 528.764 175.872 528.224 174.636 527.828L173.82 527.576C172.968 527.312 172.716 527 172.716 526.292C172.716 525.56 173.232 525.164 174.144 525.164C175.044 525.164 175.716 525.38 176.22 525.596V524.588C175.764 524.36 175.188 524.132 174.144 524.132C172.38 524.132 171.492 525.068 171.492 526.4C171.492 527.732 172.188 528.332 173.316 528.68L174.12 528.944C175.056 529.244 175.38 529.556 175.38 530.276C175.38 531.092 174.888 531.608 173.724 531.608C172.848 531.608 172.044 531.392 171.408 531.092V532.1C171.972 532.412 172.764 532.64 173.808 532.64ZM177.537 532.496H178.713V526.376H177.537V532.496ZM177.525 525.236H178.725V524.084H177.525V525.236ZM182.137 534.272C184.261 534.272 185.137 533.576 185.137 532.448C185.137 531.26 184.321 530.852 183.181 530.852H181.501C181.105 530.852 180.937 530.828 180.937 530.516C180.937 530.36 181.033 530.204 181.165 530.072C181.477 530.168 181.813 530.204 182.161 530.204C183.493 530.204 184.513 529.592 184.513 528.308V528.188C184.513 527.78 184.405 527.444 184.189 527.204H185.173V526.352H183.097C182.809 526.292 182.509 526.256 182.173 526.256C180.781 526.256 179.797 526.964 179.797 528.236V528.356C179.797 529.04 180.109 529.52 180.565 529.832C180.085 530.168 179.857 530.528 179.857 530.96C179.857 531.368 180.133 531.512 180.481 531.632V531.692C179.857 531.908 179.341 532.316 179.341 532.952C179.341 533.864 180.253 534.272 182.137 534.272ZM182.113 533.396C180.997 533.396 180.553 533.264 180.553 532.784C180.553 532.328 180.853 532.052 181.261 531.92H182.905C183.625 531.92 183.913 532.124 183.913 532.628C183.913 533.216 183.445 533.396 182.113 533.396ZM182.161 529.388C181.441 529.388 180.961 529.052 180.961 528.332V528.164C180.961 527.468 181.417 527.096 182.161 527.096C182.893 527.096 183.361 527.42 183.361 528.188V528.356C183.361 529.052 182.929 529.388 182.161 529.388ZM185.709 532.496H186.885V527.648C187.305 527.444 187.893 527.264 188.409 527.264C189.333 527.264 189.525 527.54 189.525 528.212V532.496H190.713V527.936C190.713 526.748 190.137 526.256 188.949 526.256C188.205 526.256 187.413 526.544 186.897 526.904H186.849V526.376H185.709V532.496ZM197.836 532.64C199.864 532.64 200.86 531.704 200.86 529.592V524.276H199.732V529.544C199.732 531.2 199.132 531.692 197.884 531.692C196.624 531.692 195.964 531.188 195.964 529.556V524.276H194.692V529.628C194.692 531.668 195.82 532.64 197.836 532.64ZM202.168 534.296H203.344V532.172C203.668 532.352 204.16 532.532 204.844 532.532C206.524 532.532 207.604 531.68 207.604 529.412V529.244C207.604 526.988 206.44 526.256 205.108 526.256C204.364 526.256 203.728 526.52 203.356 526.868H203.308V526.376H202.168V534.296ZM204.7 531.608C204.112 531.608 203.596 531.416 203.344 531.224V527.648C203.596 527.456 204.112 527.252 204.76 527.252C205.792 527.252 206.368 527.72 206.368 529.316V529.568C206.368 531.128 205.756 531.608 204.7 531.608Z" fill="white"/>
<path d="M173.808 532.64C175.764 532.64 176.652 531.68 176.652 530.18C176.652 528.764 175.872 528.224 174.636 527.828L173.82 527.576C172.968 527.312 172.716 527 172.716 526.292C172.716 525.56 173.232 525.164 174.144 525.164C175.044 525.164 175.716 525.38 176.22 525.596V524.588C175.764 524.36 175.188 524.132 174.144 524.132C172.38 524.132 171.492 525.068 171.492 526.4C171.492 527.732 172.188 528.332 173.316 528.68L174.12 528.944C175.056 529.244 175.38 529.556 175.38 530.276C175.38 531.092 174.888 531.608 173.724 531.608C172.848 531.608 172.044 531.392 171.408 531.092V532.1C171.972 532.412 172.764 532.64 173.808 532.64ZM177.537 532.496H178.713V526.376H177.537V532.496ZM177.525 525.236H178.725V524.084H177.525V525.236ZM182.137 534.272C184.261 534.272 185.137 533.576 185.137 532.448C185.137 531.26 184.321 530.852 183.181 530.852H181.501C181.105 530.852 180.937 530.828 180.937 530.516C180.937 530.36 181.033 530.204 181.165 530.072C181.477 530.168 181.813 530.204 182.161 530.204C183.493 530.204 184.513 529.592 184.513 528.308V528.188C184.513 527.78 184.405 527.444 184.189 527.204H185.173V526.352H183.097C182.809 526.292 182.509 526.256 182.173 526.256C180.781 526.256 179.797 526.964 179.797 528.236V528.356C179.797 529.04 180.109 529.52 180.565 529.832C180.085 530.168 179.857 530.528 179.857 530.96C179.857 531.368 180.133 531.512 180.481 531.632V531.692C179.857 531.908 179.341 532.316 179.341 532.952C179.341 533.864 180.253 534.272 182.137 534.272ZM182.113 533.396C180.997 533.396 180.553 533.264 180.553 532.784C180.553 532.328 180.853 532.052 181.261 531.92H182.905C183.625 531.92 183.913 532.124 183.913 532.628C183.913 533.216 183.445 533.396 182.113 533.396ZM182.161 529.388C181.441 529.388 180.961 529.052 180.961 528.332V528.164C180.961 527.468 181.417 527.096 182.161 527.096C182.893 527.096 183.361 527.42 183.361 528.188V528.356C183.361 529.052 182.929 529.388 182.161 529.388ZM185.709 532.496H186.885V527.648C187.305 527.444 187.893 527.264 188.409 527.264C189.333 527.264 189.525 527.54 189.525 528.212V532.496H190.713V527.936C190.713 526.748 190.137 526.256 188.949 526.256C188.205 526.256 187.413 526.544 186.897 526.904H186.849V526.376H185.709V532.496ZM197.836 532.64C199.864 532.64 200.86 531.704 200.86 529.592V524.276H199.732V529.544C199.732 531.2 199.132 531.692 197.884 531.692C196.624 531.692 195.964 531.188 195.964 529.556V524.276H194.692V529.628C194.692 531.668 195.82 532.64 197.836 532.64ZM202.168 534.296H203.344V532.172C203.668 532.352 204.16 532.532 204.844 532.532C206.524 532.532 207.604 531.68 207.604 529.412V529.244C207.604 526.988 206.44 526.256 205.108 526.256C204.364 526.256 203.728 526.52 203.356 526.868H203.308V526.376H202.168V534.296ZM204.7 531.608C204.112 531.608 203.596 531.416 203.344 531.224V527.648C203.596 527.456 204.112 527.252 204.76 527.252C205.792 527.252 206.368 527.72 206.368 529.316V529.568C206.368 531.128 205.756 531.608 204.7 531.608Z" fill="white"/>
<path d="M109.96 748.496H111.196V745.328H112.78C114.4 745.328 115.48 744.44 115.48 742.748C115.48 741.164 114.556 740.276 112.672 740.276H109.96V748.496ZM111.196 744.356V741.284H112.564C113.74 741.284 114.172 741.728 114.172 742.844C114.172 743.852 113.728 744.356 112.54 744.356H111.196ZM116.239 748.496H117.415V743.816C117.835 743.54 118.399 743.372 118.975 743.372C119.095 743.372 119.299 743.384 119.455 743.408V742.352C119.395 742.316 119.215 742.304 119.071 742.304C118.411 742.304 117.787 742.652 117.427 743.06H117.379V742.376H116.239V748.496ZM120.098 748.496H121.274V742.376H120.098V748.496ZM120.086 741.236H121.286V740.084H120.086V741.236ZM124.158 748.496H125.358L127.59 742.376H126.438L124.818 747.02H124.782L123.186 742.376H121.914L124.158 748.496ZM129.489 748.604C130.281 748.604 130.785 748.34 131.073 747.98H131.145L131.253 748.496H132.225V744.068C132.225 742.832 131.421 742.256 130.041 742.256C129.285 742.256 128.661 742.376 128.097 742.604V743.432C128.469 743.348 128.973 743.252 129.573 743.252C130.653 743.252 131.037 743.456 131.037 744.368V744.896L129.501 745.076C128.313 745.232 127.593 745.772 127.593 746.864C127.593 748.052 128.385 748.604 129.489 748.604ZM129.801 747.74C129.189 747.74 128.793 747.44 128.793 746.816C128.793 746.18 129.117 745.916 129.765 745.844L131.037 745.712V747.344C130.797 747.572 130.305 747.74 129.801 747.74ZM135.865 748.604C136.717 748.604 137.281 748.388 137.689 748.124V747.224C137.365 747.38 136.825 747.632 136.045 747.632C134.845 747.632 134.221 747.008 134.221 745.532V745.22C134.221 743.936 134.881 743.252 135.925 743.252C136.705 743.252 137.077 743.396 137.617 743.624V742.652C137.209 742.412 136.741 742.256 135.937 742.256C134.281 742.256 132.997 743.24 132.997 745.376V745.58C132.997 747.608 134.113 748.604 135.865 748.604ZM138.879 750.284C139.959 750.284 140.511 750.164 140.931 749.012L143.391 742.376H142.239L140.703 746.66H140.679L139.011 742.376H137.751L140.091 748.16L139.827 748.844C139.647 749.312 139.215 749.36 138.639 749.36C138.435 749.36 138.207 749.336 138.063 749.288V750.116C138.231 750.2 138.591 750.284 138.879 750.284Z" fill="#0D0C0C"/>
<path d="M229.96 748.496H234.76V747.464H231.196V740.276H229.96V748.496ZM238.093 748.604C239.113 748.604 239.821 748.292 240.205 748.016V747.188C239.641 747.44 239.113 747.632 238.309 747.632C237.109 747.632 236.425 747.164 236.341 745.76H240.397V745.184C240.397 743.252 239.593 742.256 237.865 742.256C236.389 742.256 235.129 743.252 235.129 745.352V745.508C235.129 747.428 236.113 748.604 238.093 748.604ZM237.817 743.192C238.705 743.192 239.161 743.66 239.161 744.896H236.341C236.437 743.528 237.169 743.192 237.817 743.192ZM243.383 750.272C245.507 750.272 246.383 749.576 246.383 748.448C246.383 747.26 245.567 746.852 244.427 746.852H242.747C242.351 746.852 242.183 746.828 242.183 746.516C242.183 746.36 242.279 746.204 242.411 746.072C242.723 746.168 243.059 746.204 243.407 746.204C244.739 746.204 245.759 745.592 245.759 744.308V744.188C245.759 743.78 245.651 743.444 245.435 743.204H246.419V742.352H244.343C244.055 742.292 243.755 742.256 243.419 742.256C242.027 742.256 241.043 742.964 241.043 744.236V744.356C241.043 745.04 241.355 745.52 241.811 745.832C241.331 746.168 241.103 746.528 241.103 746.96C241.103 747.368 241.379 747.512 241.727 747.632V747.692C241.103 747.908 240.587 748.316 240.587 748.952C240.587 749.864 241.499 750.272 243.383 750.272ZM243.359 749.396C242.243 749.396 241.799 749.264 241.799 748.784C241.799 748.328 242.099 748.052 242.507 747.92H244.151C244.871 747.92 245.159 748.124 245.159 748.628C245.159 749.216 244.691 749.396 243.359 749.396ZM243.407 745.388C242.687 745.388 242.207 745.052 242.207 744.332V744.164C242.207 743.468 242.663 743.096 243.407 743.096C244.139 743.096 244.607 743.42 244.607 744.188V744.356C244.607 745.052 244.175 745.388 243.407 745.388ZM248.479 748.604C249.271 748.604 249.775 748.34 250.063 747.98H250.135L250.243 748.496H251.215V744.068C251.215 742.832 250.411 742.256 249.031 742.256C248.275 742.256 247.651 742.376 247.087 742.604V743.432C247.459 743.348 247.963 743.252 248.563 743.252C249.643 743.252 250.027 743.456 250.027 744.368V744.896L248.491 745.076C247.303 745.232 246.583 745.772 246.583 746.864C246.583 748.052 247.375 748.604 248.479 748.604ZM248.791 747.74C248.179 747.74 247.783 747.44 247.783 746.816C247.783 746.18 248.107 745.916 248.755 745.844L250.027 745.712V747.344C249.787 747.572 249.295 747.74 248.791 747.74ZM252.384 748.496H253.56V739.736H252.384V748.496Z" fill="#0D0C0C"/>
</g>
<defs>
<filter id="filter0_d" x="83" y="337" width="200" height="32" filterUnits="userSpaceOnUse" color-interpolation-filters="sRGB">
<feFlood flood-opacity="0" result="BackgroundImageFix"/>
<feColorMatrix in="SourceAlpha" type="matrix" values="0 0 0 0 0 0 0 0 0 0 0 0 0 0 0 0 0 0 127 0"/>
<feOffset dy="4"/>
<feGaussianBlur stdDeviation="2"/>
<feColorMatrix type="matrix" values="0 0 0 0 0 0 0 0 0 0 0 0 0 0 0 0 0 0 0.25 0"/>
<feBlend mode="normal" in2="BackgroundImageFix" result="effect1_dropShadow"/>
<feBlend mode="normal" in="SourceGraphic" in2="effect1_dropShadow" result="shape"/>
</filter>
<filter id="filter1_d" x="83" y="375" width="200" height="32" filterUnits="userSpaceOnUse" color-interpolation-filters="sRGB">
<feFlood flood-opacity="0" result="BackgroundImageFix"/>
<feColorMatrix in="SourceAlpha" type="matrix" values="0 0 0 0 0 0 0 0 0 0 0 0 0 0 0 0 0 0 127 0"/>
<feOffset dy="4"/>
<feGaussianBlur stdDeviation="2"/>
<feColorMatrix type="matrix" values="0 0 0 0 0 0 0 0 0 0 0 0 0 0 0 0 0 0 0.25 0"/>
<feBlend mode="normal" in2="BackgroundImageFix" result="effect1_dropShadow"/>
<feBlend mode="normal" in="SourceGraphic" in2="effect1_dropShadow" result="shape"/>
</filter>
<clipPath id="clip0">
<rect width="375" height="812" fill="white"/>
</clipPath>
<clipPath id="clip1">
<rect x="142" y="212" width="90" height="91" fill="white"/>
</clipPath>
</defs>
</svg>
