<svg width="375" height="812" viewBox="0 0 375 812" fill="none" xmlns="http://www.w3.org/2000/svg">
<rect width="375" height="812" fill="#6F8DF7"/>
<path d="M36.6322 20.1338L33.5707 22.1113L33.8344 22.5215L36.0023 21.1885V27.4873L34.098 27.6191V28H39.4154C39.4154 27.7949 39.3129 27.6729 39.1078 27.6338C39.0688 27.624 39.0297 27.6191 38.9906 27.6191L37.7162 27.4873V20.1338H36.6322ZM40.6389 26.6816C40.6389 26.3203 41.0002 25.9346 41.7229 25.5244C41.8889 25.4365 42.1574 25.2998 42.5285 25.1143C43.6125 24.5576 44.3498 24.0889 44.7404 23.708C45.2287 23.2197 45.4729 22.6924 45.4729 22.126C45.4729 21.1689 44.9553 20.5244 43.9201 20.1924C43.5002 20.0557 43.0412 19.9873 42.5432 19.9873C41.5275 19.9873 40.7658 20.2412 40.258 20.749C39.9553 21.0518 39.8039 21.4131 39.8039 21.833C39.8039 22.3115 39.9797 22.6094 40.3312 22.7266C40.4191 22.7559 40.507 22.7705 40.5949 22.7705C41.0637 22.7705 41.3469 22.5459 41.4445 22.0967C41.4641 21.9893 41.4787 21.8184 41.4885 21.584C41.5275 21.0664 41.6301 20.7344 41.7961 20.5879C41.9426 20.4512 42.1525 20.3828 42.426 20.3828C43.0998 20.3828 43.5148 20.7393 43.6711 21.4521C43.7102 21.6377 43.7297 21.8281 43.7297 22.0234C43.7297 23.0293 43.3439 23.8301 42.5725 24.4258C42.4553 24.5137 42.0402 24.7822 41.3273 25.2314C40.6437 25.6611 40.1994 26.1006 39.9943 26.5498C39.8479 26.8721 39.7746 27.2285 39.7746 27.6191V28H45.6193L45.634 25.334H45.3117L45.0627 26.0371C44.9357 26.3887 44.7404 26.5938 44.4768 26.6523C44.3596 26.6719 44.1984 26.6816 43.9934 26.6816H40.6389ZM48.5566 23.1221C48.5566 22.7412 48.3857 22.4629 48.0439 22.2871C47.9072 22.2188 47.7656 22.1846 47.6191 22.1846C47.2383 22.1846 46.9648 22.3555 46.7988 22.6973C46.7305 22.834 46.6963 22.9756 46.6963 23.1221C46.6963 23.5127 46.8672 23.791 47.209 23.957C47.3457 24.0156 47.4824 24.0449 47.6191 24.0449C48 24.0449 48.2783 23.8789 48.4541 23.5469C48.5225 23.4102 48.5566 23.2686 48.5566 23.1221ZM48.5566 26.4912C48.5566 26.1104 48.3906 25.8271 48.0586 25.6416C47.9121 25.5537 47.7656 25.5098 47.6191 25.5098C47.2578 25.5098 46.9893 25.6855 46.8135 26.0371C46.7354 26.1836 46.6963 26.335 46.6963 26.4912C46.6963 26.8818 46.8672 27.1602 47.209 27.3262C47.3457 27.3848 47.4824 27.4141 47.6191 27.4141C48 27.4141 48.2783 27.248 48.4541 26.916C48.5225 26.7793 48.5566 26.6377 48.5566 26.4912ZM50.117 26.6816C50.117 26.3203 50.4783 25.9346 51.201 25.5244C51.367 25.4365 51.6355 25.2998 52.0066 25.1143C53.0906 24.5576 53.8279 24.0889 54.2186 23.708C54.7068 23.2197 54.951 22.6924 54.951 22.126C54.951 21.1689 54.4334 20.5244 53.3982 20.1924C52.9783 20.0557 52.5193 19.9873 52.0213 19.9873C51.0057 19.9873 50.2439 20.2412 49.7361 20.749C49.4334 21.0518 49.282 21.4131 49.282 21.833C49.282 22.3115 49.4578 22.6094 49.8094 22.7266C49.8973 22.7559 49.9852 22.7705 50.073 22.7705C50.5418 22.7705 50.825 22.5459 50.9227 22.0967C50.9422 21.9893 50.9568 21.8184 50.9666 21.584C51.0057 21.0664 51.1082 20.7344 51.2742 20.5879C51.4207 20.4512 51.6307 20.3828 51.9041 20.3828C52.5779 20.3828 52.993 20.7393 53.1492 21.4521C53.1883 21.6377 53.2078 21.8281 53.2078 22.0234C53.2078 23.0293 52.8221 23.8301 52.0506 24.4258C51.9334 24.5137 51.5184 24.7822 50.8055 25.2314C50.1219 25.6611 49.6775 26.1006 49.4725 26.5498C49.326 26.8721 49.2527 27.2285 49.2527 27.6191V28H55.0975L55.1121 25.334H54.7898L54.5408 26.0371C54.4139 26.3887 54.2186 26.5938 53.9549 26.6523C53.8377 26.6719 53.6766 26.6816 53.4715 26.6816H50.117ZM56.9215 26.6816C56.9215 26.3203 57.2828 25.9346 58.0055 25.5244C58.1715 25.4365 58.44 25.2998 58.8111 25.1143C59.8951 24.5576 60.6324 24.0889 61.023 23.708C61.5113 23.2197 61.7555 22.6924 61.7555 22.126C61.7555 21.1689 61.2379 20.5244 60.2027 20.1924C59.7828 20.0557 59.3238 19.9873 58.8258 19.9873C57.8102 19.9873 57.0484 20.2412 56.5406 20.749C56.2379 21.0518 56.0865 21.4131 56.0865 21.833C56.0865 22.3115 56.2623 22.6094 56.6139 22.7266C56.7018 22.7559 56.7896 22.7705 56.8775 22.7705C57.3463 22.7705 57.6295 22.5459 57.7271 22.0967C57.7467 21.9893 57.7613 21.8184 57.7711 21.584C57.8102 21.0664 57.9127 20.7344 58.0787 20.5879C58.2252 20.4512 58.4352 20.3828 58.7086 20.3828C59.3824 20.3828 59.7975 20.7393 59.9537 21.4521C59.9928 21.6377 60.0123 21.8281 60.0123 22.0234C60.0123 23.0293 59.6266 23.8301 58.8551 24.4258C58.7379 24.5137 58.3229 24.7822 57.61 25.2314C56.9264 25.6611 56.482 26.1006 56.277 26.5498C56.1305 26.8721 56.0572 27.2285 56.0572 27.6191V28H61.902L61.9166 25.334H61.5943L61.3453 26.0371C61.2184 26.3887 61.023 26.5938 60.7594 26.6523C60.6422 26.6719 60.4811 26.6816 60.276 26.6816H56.9215Z" fill="white"/>
<rect opacity="0.35" x="336.833" y="18.8333" width="21" height="10.3333" rx="2.16667" stroke="white"/>
<path opacity="0.4" d="M359.333 22V26C360.138 25.6612 360.661 24.8731 360.661 24C360.661 23.1269 360.138 22.3388 359.333 22Z" fill="white"/>
<rect x="338.333" y="20.3333" width="18" height="7.33333" rx="1.33333" fill="white"/>
<path fill-rule="evenodd" clip-rule="evenodd" d="M323.667 20.615C325.892 20.6151 328.031 21.4693 329.644 23.0008C329.765 23.1191 329.959 23.1176 330.079 22.9975L331.239 21.8272C331.3 21.7663 331.334 21.6837 331.333 21.5979C331.333 21.5121 331.298 21.4299 331.237 21.3697C327.005 17.3175 320.329 17.3175 316.097 21.3697C316.035 21.4299 316.001 21.512 316 21.5978C315.999 21.6837 316.033 21.7662 316.094 21.8272L317.255 22.9975C317.374 23.1178 317.568 23.1193 317.69 23.0008C319.302 21.4692 321.442 20.615 323.667 20.615ZM323.667 24.4226C324.889 24.4226 326.068 24.8765 326.974 25.6963C327.097 25.8126 327.29 25.8101 327.409 25.6906L328.569 24.5203C328.63 24.4589 328.663 24.3756 328.663 24.2891C328.662 24.2025 328.626 24.12 328.564 24.0598C325.805 21.4954 321.532 21.4954 318.773 24.0598C318.71 24.12 318.675 24.2026 318.674 24.2891C318.673 24.3757 318.707 24.459 318.768 24.5203L319.927 25.6906C320.047 25.8101 320.24 25.8126 320.362 25.6963C321.268 24.877 322.446 24.4231 323.667 24.4226ZM325.989 26.9845C325.991 27.0712 325.957 27.1549 325.895 27.2157L323.89 29.2377C323.831 29.2971 323.751 29.3306 323.667 29.3306C323.583 29.3306 323.503 29.2971 323.445 29.2377L321.439 27.2157C321.377 27.1549 321.343 27.0712 321.345 26.9844C321.347 26.8976 321.384 26.8154 321.449 26.7573C322.729 25.675 324.605 25.675 325.886 26.7573C325.95 26.8155 325.988 26.8977 325.989 26.9845Z" fill="white"/>
<path fill-rule="evenodd" clip-rule="evenodd" d="M310 18.6667H309C308.448 18.6667 308 19.1145 308 19.6667V28.3334C308 28.8857 308.448 29.3334 309 29.3334H310C310.552 29.3334 311 28.8857 311 28.3334V19.6667C311 19.1145 310.552 18.6667 310 18.6667ZM304.333 21.0001H305.333C305.886 21.0001 306.333 21.4478 306.333 22.0001V28.3334C306.333 28.8857 305.886 29.3334 305.333 29.3334H304.333C303.781 29.3334 303.333 28.8857 303.333 28.3334V22.0001C303.333 21.4478 303.781 21.0001 304.333 21.0001ZM300.667 23.3334H299.667C299.114 23.3334 298.667 23.7811 298.667 24.3334V28.3334C298.667 28.8857 299.114 29.3334 299.667 29.3334H300.667C301.219 29.3334 301.667 28.8857 301.667 28.3334V24.3334C301.667 23.7811 301.219 23.3334 300.667 23.3334ZM296 25.3334H295C294.448 25.3334 294 25.7811 294 26.3334V28.3334C294 28.8857 294.448 29.3334 295 29.3334H296C296.552 29.3334 297 28.8857 297 28.3334V26.3334C297 25.7811 296.552 25.3334 296 25.3334Z" fill="white"/>
<path d="M238.209 196.13C262.871 194.44 282.153 174.155 282.153 149.874C282.153 128.77 267.238 110.073 246.838 104.899C242.47 79.6457 219.885 61 192.773 61C173.118 61 154.902 71.2449 145.207 87.4318C143.343 87.0733 141.372 86.9196 139.455 86.9196C122.889 86.9196 109.413 99.8794 109.413 115.81C109.413 117.859 109.626 119.857 110.052 121.803C99.346 129.282 92.8477 141.371 92.8477 154.177C92.8477 175.794 110.905 195.054 132.264 196.181C132.371 196.181 132.477 196.181 132.584 196.181H237.889C237.942 196.181 238.102 196.181 238.209 196.13ZM132.69 186.039C116.764 185.117 103.394 170.569 103.394 154.177C103.394 143.574 109.307 133.688 118.841 128.36C121.078 127.131 122.037 124.518 121.132 122.213C120.333 120.216 119.96 118.064 119.96 115.81C119.96 105.463 128.695 97.062 139.455 97.062C141.745 97.062 143.982 97.4206 146.113 98.189C148.67 99.111 151.546 97.9841 152.718 95.5765C159.962 80.7214 175.728 71.1424 192.827 71.1424C215.784 71.1424 234.746 87.688 236.93 109.612C237.143 111.917 238.954 113.761 241.298 114.12C258.609 116.988 271.659 132.356 271.659 149.874C271.659 168.469 256.425 184.656 237.676 186.039H132.69Z" fill="white"/>
<path d="M187.5 213.29C184.57 213.29 182.227 215.544 182.227 218.362V277.782C174.929 279.933 169.496 286.439 169.337 294.071C169.23 298.733 170.988 303.189 174.344 306.57C177.699 309.951 182.227 311.897 187.074 312H187.5C197.301 312 205.45 304.316 205.664 294.942C205.77 290.281 204.012 285.824 200.657 282.443C198.473 280.241 195.756 278.653 192.773 277.782V218.362C192.773 215.544 190.43 213.29 187.5 213.29ZM193.04 289.461C194.425 290.895 195.224 292.739 195.17 294.686C195.064 298.63 191.655 301.857 187.553 301.857H187.34C185.316 301.806 183.399 300.987 182.014 299.604C180.629 298.169 179.83 296.325 179.883 294.379C179.99 290.434 183.399 287.207 187.5 287.207H187.713C189.737 287.207 191.601 288.027 193.04 289.461Z" fill="white"/>
<path d="M153.623 218.362V246.791C153.623 251.709 149.469 255.653 144.408 255.653H128.855C126.565 248.482 119.64 243.205 111.437 243.205C101.423 243.205 93.2205 251.043 93.2205 260.724C93.2205 270.406 101.37 278.243 111.437 278.243C119.64 278.243 126.565 273.018 128.855 265.795H144.408C155.328 265.795 164.17 257.241 164.17 246.791V218.362C164.17 215.544 161.826 213.29 158.897 213.29C156.02 213.29 153.623 215.544 153.623 218.362ZM111.437 268.101C107.229 268.101 103.767 264.822 103.767 260.724C103.767 256.626 107.176 253.348 111.437 253.348C115.645 253.348 119.107 256.626 119.107 260.724C119.107 264.822 115.698 268.101 111.437 268.101Z" fill="white"/>
<path d="M230.592 265.847H246.145C248.436 273.018 255.36 278.294 263.563 278.294C273.577 278.294 281.78 270.457 281.78 260.775C281.78 251.094 273.63 243.257 263.563 243.257C255.36 243.257 248.436 248.482 246.145 255.704H230.592C225.478 255.704 221.377 251.709 221.377 246.842V218.413C221.377 215.595 219.033 213.342 216.104 213.342C213.174 213.342 210.83 215.595 210.83 218.413V246.842C210.83 257.292 219.672 265.847 230.592 265.847ZM263.563 253.399C267.771 253.399 271.233 256.677 271.233 260.775C271.233 264.873 267.824 268.152 263.563 268.152C259.302 268.152 255.893 264.873 255.893 260.775C255.893 256.677 259.302 253.399 263.563 253.399Z" fill="white"/>
<path d="M147.056 343H163.756V345.65H149.856V357.35H158.406L157.256 360.1H149.856V378H147.056V343ZM183.671 365.6C183.071 365.7 182.405 365.75 181.671 365.75H171.821V378H169.021V343H181.321C184.488 343 186.838 343.967 188.371 345.9C189.938 347.833 190.721 350.433 190.721 353.7C190.721 356.2 190.438 358.417 189.871 360.35C189.338 362.283 188.155 363.75 186.321 364.75L190.771 378H187.921L183.671 365.6ZM181.721 363C183.588 363 184.971 362.5 185.871 361.5C186.805 360.5 187.371 359.367 187.571 358.1C187.805 356.833 187.921 355.417 187.921 353.85C187.921 351.117 187.355 349.067 186.221 347.7C185.088 346.333 183.521 345.65 181.521 345.65H171.821V363H181.721ZM196.944 343H213.644V345.6H199.744V357.35H209.294L208.344 360.1H199.744V375.5H213.544V378H196.944V343ZM219.886 343H236.586V345.6H222.686V357.35H232.236L231.286 360.1H222.686V375.5H236.486V378H219.886V343ZM112.571 436.5C113.438 436.167 114.154 435.567 114.721 434.7C115.321 433.8 115.621 432.367 115.621 430.4V423.3C114.721 424.1 113.521 424.717 112.021 425.15C110.521 425.55 109.088 425.75 107.721 425.75C104.188 425.75 101.388 424.883 99.3209 423.15C97.2876 421.383 96.2709 418.783 96.2709 415.35V403H99.0709V415.85C99.0709 418.183 99.8709 419.967 101.471 421.2C103.071 422.4 105.154 423 107.721 423C109.688 423 111.404 422.583 112.871 421.75C114.338 420.917 115.254 419.667 115.621 418V403H118.471V430.2C118.471 432.633 118.004 434.55 117.071 435.95C116.171 437.317 114.888 438.117 113.221 438.35L112.571 436.5ZM143.097 428.75C143.097 432.117 142.064 434.6 139.997 436.2C137.964 437.767 135.514 438.55 132.647 438.55C130.847 438.55 129.147 438.233 127.547 437.6C125.947 436.933 124.631 435.867 123.597 434.4C122.597 432.933 122.097 431.05 122.097 428.75V412.65C122.097 409.217 123.031 406.617 124.897 404.85C126.797 403.083 129.397 402.2 132.697 402.2C135.997 402.2 138.547 403.133 140.347 405C142.181 406.867 143.097 409.433 143.097 412.7V428.75ZM140.347 412.2C140.347 409.767 139.631 407.933 138.197 406.7C136.797 405.467 134.931 404.85 132.597 404.85C130.264 404.85 128.397 405.467 126.997 406.7C125.597 407.933 124.897 409.767 124.897 412.2V428.7C124.897 431.067 125.614 432.867 127.047 434.1C128.514 435.3 130.364 435.9 132.597 435.9C134.864 435.9 136.714 435.317 138.147 434.15C139.614 432.95 140.347 431.117 140.347 428.65V412.2ZM170.839 402.95V428.7C170.839 432.067 169.806 434.517 167.739 436.05C165.706 437.583 163.239 438.35 160.339 438.35C157.439 438.35 154.956 437.583 152.889 436.05C150.822 434.517 149.789 432.067 149.789 428.7V402.95H152.589V429.1C152.589 431.133 153.322 432.767 154.789 434C156.289 435.233 158.122 435.85 160.289 435.85C162.456 435.85 164.289 435.233 165.789 434C167.289 432.767 168.039 431.133 168.039 429.1V402.95H170.839ZM192.659 425.6C192.059 425.7 191.393 425.75 190.659 425.75H180.809V438H178.009V403H190.309C193.476 403 195.826 403.967 197.359 405.9C198.926 407.833 199.709 410.433 199.709 413.7C199.709 416.2 199.426 418.417 198.859 420.35C198.326 422.283 197.143 423.75 195.309 424.75L199.759 438H196.909L192.659 425.6ZM190.709 423C192.576 423 193.959 422.5 194.859 421.5C195.793 420.5 196.359 419.367 196.559 418.1C196.793 416.833 196.909 415.417 196.909 413.85C196.909 411.117 196.343 409.067 195.209 407.7C194.076 406.333 192.509 405.65 190.509 405.65H180.809V423H190.709ZM219.548 402.95H228.948C232.715 402.95 235.581 403.983 237.548 406.05C239.548 408.117 240.548 410.867 240.548 414.3V428C240.548 434.667 237.015 438 229.948 438H219.548V402.95ZM237.748 413.8C237.748 411.9 237.331 410.333 236.498 409.1C235.698 407.833 234.665 406.917 233.398 406.35C232.131 405.783 230.815 405.5 229.448 405.5H222.348V435.5H229.148C231.581 435.5 233.615 435.033 235.248 434.1C236.915 433.133 237.748 431.267 237.748 428.5V413.8ZM259.198 425.75H247.798L243.898 438H240.948L252.148 403H254.798L266.198 438H263.198L259.198 425.75ZM248.598 423H258.448L253.448 407.35L248.598 423ZM270.325 405.5H261.825V403H281.925V405.5H273.125V438H270.325V405.5ZM295.512 425.75H284.112L280.212 438H277.262L288.462 403H291.112L302.512 438H299.512L295.512 425.75ZM284.912 423H294.762L289.762 407.35L284.912 423Z" fill="white"/>
<path d="M339 728H36C29.3726 728 24 733.373 24 740V768C24 774.627 29.3726 780 36 780H339C345.627 780 351 774.627 351 768V740C351 733.373 345.627 728 339 728Z" fill="#C5C5C5"/>
<path d="M166.38 754.247C165.174 753.9 164.295 753.475 163.743 752.972C163.196 752.464 162.923 751.839 162.923 751.097C162.923 750.257 163.257 749.564 163.926 749.017C164.6 748.465 165.474 748.189 166.548 748.189C167.281 748.189 167.933 748.331 168.504 748.614C169.08 748.897 169.524 749.288 169.837 749.786C170.154 750.284 170.313 750.829 170.313 751.419H168.899C168.899 750.775 168.694 750.27 168.284 749.903C167.874 749.532 167.295 749.347 166.548 749.347C165.855 749.347 165.313 749.5 164.922 749.808C164.537 750.111 164.344 750.533 164.344 751.075C164.344 751.51 164.527 751.878 164.893 752.181C165.264 752.479 165.892 752.752 166.775 753.001C167.664 753.25 168.357 753.526 168.855 753.829C169.358 754.127 169.729 754.476 169.969 754.876C170.213 755.277 170.335 755.748 170.335 756.29C170.335 757.154 169.998 757.848 169.324 758.37C168.65 758.888 167.75 759.146 166.622 759.146C165.889 759.146 165.206 759.007 164.571 758.729C163.936 758.446 163.445 758.06 163.099 757.572C162.757 757.083 162.586 756.529 162.586 755.909H164C164 756.554 164.236 757.064 164.71 757.44C165.188 757.811 165.826 757.997 166.622 757.997C167.364 757.997 167.933 757.845 168.328 757.542C168.724 757.24 168.921 756.827 168.921 756.305C168.921 755.782 168.738 755.379 168.372 755.096C168.006 754.808 167.342 754.525 166.38 754.247ZM173.404 759H172.049V751.075H173.404V759ZM171.939 748.973C171.939 748.753 172.005 748.568 172.137 748.417C172.273 748.265 172.474 748.189 172.737 748.189C173.001 748.189 173.201 748.265 173.338 748.417C173.475 748.568 173.543 748.753 173.543 748.973C173.543 749.193 173.475 749.376 173.338 749.522C173.201 749.669 173.001 749.742 172.737 749.742C172.474 749.742 172.273 749.669 172.137 749.522C172.005 749.376 171.939 749.193 171.939 748.973ZM175.257 754.972C175.257 753.736 175.542 752.755 176.114 752.027C176.685 751.295 177.442 750.929 178.384 750.929C179.351 750.929 180.105 751.271 180.647 751.954L180.713 751.075H181.951V758.81C181.951 759.835 181.646 760.643 181.036 761.234C180.43 761.825 179.615 762.12 178.589 762.12C178.018 762.12 177.459 761.998 176.912 761.754C176.365 761.51 175.948 761.175 175.66 760.75L176.363 759.938C176.944 760.655 177.654 761.014 178.494 761.014C179.153 761.014 179.666 760.829 180.032 760.458C180.403 760.086 180.589 759.564 180.589 758.89V758.209C180.047 758.834 179.307 759.146 178.37 759.146C177.442 759.146 176.69 758.773 176.114 758.026C175.542 757.279 175.257 756.261 175.257 754.972ZM176.619 755.125C176.619 756.019 176.802 756.722 177.168 757.235C177.535 757.743 178.047 757.997 178.707 757.997C179.561 757.997 180.188 757.608 180.589 756.832V753.214C180.174 752.457 179.551 752.079 178.721 752.079C178.062 752.079 177.547 752.335 177.176 752.848C176.805 753.36 176.619 754.12 176.619 755.125ZM185.284 751.075L185.328 752.071C185.933 751.31 186.724 750.929 187.701 750.929C189.375 750.929 190.22 751.874 190.235 753.763V759H188.88V753.756C188.875 753.185 188.743 752.762 188.484 752.489C188.23 752.215 187.833 752.079 187.291 752.079C186.851 752.079 186.465 752.196 186.133 752.43C185.801 752.665 185.542 752.972 185.357 753.353V759H184.002V751.075H185.284ZM203.719 748.336V755.587C203.714 756.593 203.396 757.416 202.767 758.055C202.142 758.695 201.292 759.054 200.218 759.132L199.844 759.146C198.677 759.146 197.747 758.832 197.054 758.202C196.36 757.572 196.009 756.705 195.999 755.602V748.336H197.391V755.558C197.391 756.329 197.603 756.93 198.028 757.359C198.453 757.784 199.058 757.997 199.844 757.997C200.64 757.997 201.248 757.784 201.668 757.359C202.093 756.935 202.305 756.336 202.305 755.565V748.336H203.719ZM212.42 755.125C212.42 756.332 212.144 757.303 211.592 758.041C211.041 758.778 210.293 759.146 209.351 759.146C208.389 759.146 207.632 758.841 207.081 758.231V762.047H205.726V751.075H206.963L207.029 751.954C207.581 751.271 208.348 750.929 209.329 750.929C210.281 750.929 211.033 751.288 211.585 752.005C212.142 752.723 212.42 753.722 212.42 755.001V755.125ZM211.065 754.972C211.065 754.078 210.875 753.373 210.494 752.855C210.113 752.337 209.59 752.079 208.926 752.079C208.106 752.079 207.491 752.442 207.081 753.17V756.957C207.486 757.679 208.106 758.041 208.941 758.041C209.59 758.041 210.105 757.784 210.486 757.271C210.872 756.754 211.065 755.987 211.065 754.972Z" fill="white"/>
<path d="M339 626H36C29.3726 626 24 631.373 24 638V666C24 672.627 29.3726 678 36 678H339C345.627 678 351 672.627 351 666V638C351 631.373 345.627 626 339 626Z" fill="white"/>
<path d="M166.38 652.247C165.174 651.9 164.295 651.475 163.743 650.972C163.196 650.464 162.923 649.839 162.923 649.097C162.923 648.257 163.257 647.564 163.926 647.017C164.6 646.465 165.474 646.189 166.548 646.189C167.281 646.189 167.933 646.331 168.504 646.614C169.08 646.897 169.524 647.288 169.837 647.786C170.154 648.284 170.313 648.829 170.313 649.419H168.899C168.899 648.775 168.694 648.27 168.284 647.903C167.874 647.532 167.295 647.347 166.548 647.347C165.855 647.347 165.313 647.5 164.922 647.808C164.537 648.111 164.344 648.533 164.344 649.075C164.344 649.51 164.527 649.878 164.893 650.181C165.264 650.479 165.892 650.752 166.775 651.001C167.664 651.25 168.357 651.526 168.855 651.829C169.358 652.127 169.729 652.476 169.969 652.876C170.213 653.277 170.335 653.748 170.335 654.29C170.335 655.154 169.998 655.848 169.324 656.37C168.65 656.888 167.75 657.146 166.622 657.146C165.889 657.146 165.206 657.007 164.571 656.729C163.936 656.446 163.445 656.06 163.099 655.572C162.757 655.083 162.586 654.529 162.586 653.909H164C164 654.554 164.236 655.064 164.71 655.44C165.188 655.811 165.826 655.997 166.622 655.997C167.364 655.997 167.933 655.845 168.328 655.542C168.724 655.24 168.921 654.827 168.921 654.305C168.921 653.782 168.738 653.379 168.372 653.096C168.006 652.808 167.342 652.525 166.38 652.247ZM173.404 657H172.049V649.075H173.404V657ZM171.939 646.973C171.939 646.753 172.005 646.568 172.137 646.417C172.273 646.265 172.474 646.189 172.737 646.189C173.001 646.189 173.201 646.265 173.338 646.417C173.475 646.568 173.543 646.753 173.543 646.973C173.543 647.193 173.475 647.376 173.338 647.522C173.201 647.669 173.001 647.742 172.737 647.742C172.474 647.742 172.273 647.669 172.137 647.522C172.005 647.376 171.939 647.193 171.939 646.973ZM175.257 652.972C175.257 651.736 175.542 650.755 176.114 650.027C176.685 649.295 177.442 648.929 178.384 648.929C179.351 648.929 180.105 649.271 180.647 649.954L180.713 649.075H181.951V656.81C181.951 657.835 181.646 658.643 181.036 659.234C180.43 659.825 179.615 660.12 178.589 660.12C178.018 660.12 177.459 659.998 176.912 659.754C176.365 659.51 175.948 659.175 175.66 658.75L176.363 657.938C176.944 658.655 177.654 659.014 178.494 659.014C179.153 659.014 179.666 658.829 180.032 658.458C180.403 658.086 180.589 657.564 180.589 656.89V656.209C180.047 656.834 179.307 657.146 178.37 657.146C177.442 657.146 176.69 656.773 176.114 656.026C175.542 655.279 175.257 654.261 175.257 652.972ZM176.619 653.125C176.619 654.019 176.802 654.722 177.168 655.235C177.535 655.743 178.047 655.997 178.707 655.997C179.561 655.997 180.188 655.608 180.589 654.832V651.214C180.174 650.457 179.551 650.079 178.721 650.079C178.062 650.079 177.547 650.335 177.176 650.848C176.805 651.36 176.619 652.12 176.619 653.125ZM185.284 649.075L185.328 650.071C185.933 649.31 186.724 648.929 187.701 648.929C189.375 648.929 190.22 649.874 190.235 651.763V657H188.88V651.756C188.875 651.185 188.743 650.762 188.484 650.489C188.23 650.215 187.833 650.079 187.291 650.079C186.851 650.079 186.465 650.196 186.133 650.43C185.801 650.665 185.542 650.972 185.357 651.353V657H184.002V649.075H185.284ZM197.72 657H196.314V646.336H197.72V657ZM201.368 649.075L201.412 650.071C202.017 649.31 202.808 648.929 203.785 648.929C205.459 648.929 206.304 649.874 206.319 651.763V657H204.964V651.756C204.959 651.185 204.827 650.762 204.568 650.489C204.314 650.215 203.917 650.079 203.375 650.079C202.935 650.079 202.549 650.196 202.217 650.43C201.885 650.665 201.626 650.972 201.441 651.353V657H200.086V649.075H201.368Z" fill="#8B8A8A"/>
<path d="M339 470H36C29.3726 470 24 475.373 24 482V510C24 516.627 29.3726 522 36 522H339C345.627 522 351 516.627 351 510V482C351 475.373 345.627 470 339 470Z" fill="white"/>
<path d="M117.22 501.58C119.418 501.58 120.37 500.488 120.37 498.85C120.37 497.268 119.488 496.68 118.102 496.204L117.178 495.91C116.114 495.546 115.778 495.154 115.778 494.258C115.778 493.362 116.422 492.802 117.57 492.802C118.606 492.802 119.348 493.068 119.894 493.32V492.382C119.376 492.13 118.718 491.864 117.612 491.864C115.652 491.864 114.686 492.9 114.686 494.356C114.686 495.784 115.428 496.456 116.744 496.89L117.654 497.212C118.788 497.576 119.25 497.968 119.25 498.934C119.25 499.956 118.62 500.628 117.178 500.628C116.184 500.628 115.26 500.376 114.546 500.012V500.95C115.176 501.3 116.072 501.58 117.22 501.58ZM123.363 501.538C124.301 501.538 124.889 501.202 125.211 500.81H125.281L125.393 501.412H126.261V496.386C126.261 494.972 125.407 494.342 123.881 494.342C123.083 494.342 122.411 494.468 121.809 494.72V495.49C122.243 495.364 122.789 495.266 123.461 495.266C124.707 495.266 125.183 495.546 125.183 496.624V497.352L123.307 497.576C121.977 497.73 121.193 498.374 121.193 499.592C121.193 500.894 122.103 501.538 123.363 501.538ZM123.629 500.698C122.831 500.698 122.313 500.32 122.313 499.564C122.313 498.766 122.733 498.416 123.587 498.332L125.183 498.15V500.194C124.889 500.488 124.273 500.698 123.629 500.698ZM127.864 501.412H128.928V495.77C129.488 495.504 130.104 495.266 130.692 495.266C131.616 495.266 131.952 495.616 131.952 496.456V501.412H133.016V496.232C133.016 496.064 133.002 495.938 132.974 495.77C133.632 495.476 134.22 495.266 134.766 495.266C135.704 495.266 136.04 495.616 136.04 496.456V501.412H137.09V496.232C137.09 494.888 136.39 494.342 135.186 494.342C134.402 494.342 133.59 494.622 132.834 495.112H132.778C132.456 494.594 131.896 494.342 131.112 494.342C130.328 494.342 129.586 494.664 128.942 495.07H128.886V494.468H127.864V501.412ZM140.388 501.538C141.326 501.538 141.914 501.202 142.236 500.81H142.306L142.418 501.412H143.286V496.386C143.286 494.972 142.432 494.342 140.906 494.342C140.108 494.342 139.436 494.468 138.834 494.72V495.49C139.268 495.364 139.814 495.266 140.486 495.266C141.732 495.266 142.208 495.546 142.208 496.624V497.352L140.332 497.576C139.002 497.73 138.218 498.374 138.218 499.592C138.218 500.894 139.128 501.538 140.388 501.538ZM140.654 500.698C139.856 500.698 139.338 500.32 139.338 499.564C139.338 498.766 139.758 498.416 140.612 498.332L142.208 498.15V500.194C141.914 500.488 141.298 500.698 140.654 500.698ZM144.89 501.412H145.954V495.77C146.528 495.504 147.256 495.266 147.914 495.266C149.02 495.266 149.314 495.616 149.314 496.456V501.412H150.378V496.232C150.378 494.888 149.72 494.342 148.362 494.342C147.508 494.342 146.612 494.65 145.968 495.07H145.912V494.468H144.89V501.412ZM154.186 501.496C154.788 501.496 155.082 501.342 155.362 501.216V500.488C155.082 500.572 154.76 500.614 154.466 500.614C153.668 500.614 153.444 500.348 153.444 499.676V495.364H155.222V494.482H153.444V492.83H152.38V494.482H151.386V495.364H152.38V499.844C152.38 501.02 153.094 501.496 154.186 501.496ZM156.474 501.412H157.538V495.784C158.112 495.504 158.84 495.266 159.498 495.266C160.604 495.266 160.898 495.616 160.898 496.456V501.412H161.962V496.246C161.962 494.902 161.304 494.342 159.946 494.342C159.092 494.342 158.21 494.636 157.608 495.07H157.538V491.388H156.474V501.412ZM165.266 501.538C166.204 501.538 166.792 501.202 167.114 500.81H167.184L167.296 501.412H168.164V496.386C168.164 494.972 167.31 494.342 165.784 494.342C164.986 494.342 164.314 494.468 163.712 494.72V495.49C164.146 495.364 164.692 495.266 165.364 495.266C166.61 495.266 167.086 495.546 167.086 496.624V497.352L165.21 497.576C163.88 497.73 163.096 498.374 163.096 499.592C163.096 500.894 164.006 501.538 165.266 501.538ZM165.532 500.698C164.734 500.698 164.216 500.32 164.216 499.564C164.216 498.766 164.636 498.416 165.49 498.332L167.086 498.15V500.194C166.792 500.488 166.176 500.698 165.532 500.698ZM169.334 501.762H170.552V500.516H169.334V501.762ZM172.7 501.412H173.806V497.198H177.152V496.246H173.806V492.956H178.146V492.018H172.7V501.412ZM179.329 501.412H180.407V495.952C180.897 495.602 181.569 495.35 182.269 495.35C182.381 495.35 182.591 495.364 182.773 495.392V494.426C182.703 494.412 182.507 494.398 182.353 494.398C181.569 494.398 180.813 494.804 180.421 495.252H180.351V494.468H179.329V501.412ZM185.304 501.538C186.242 501.538 186.83 501.202 187.152 500.81H187.222L187.334 501.412H188.202V496.386C188.202 494.972 187.348 494.342 185.822 494.342C185.024 494.342 184.352 494.468 183.75 494.72V495.49C184.184 495.364 184.73 495.266 185.402 495.266C186.648 495.266 187.124 495.546 187.124 496.624V497.352L185.248 497.576C183.918 497.73 183.134 498.374 183.134 499.592C183.134 500.894 184.044 501.538 185.304 501.538ZM185.57 500.698C184.772 500.698 184.254 500.32 184.254 499.564C184.254 498.766 184.674 498.416 185.528 498.332L187.124 498.15V500.194C186.83 500.488 186.214 500.698 185.57 500.698ZM191.57 501.524C193.096 501.524 194.02 500.796 194.02 499.48C194.02 498.276 193.474 497.828 192.144 497.478L191.444 497.282C190.702 497.072 190.408 496.82 190.408 496.218C190.408 495.574 190.87 495.252 191.808 495.252C192.578 495.252 193.278 495.434 193.642 495.616V494.748C193.278 494.552 192.676 494.342 191.752 494.342C190.156 494.342 189.386 495.14 189.386 496.316C189.386 497.492 190.072 497.954 191.08 498.234L191.766 498.416C192.648 498.668 192.97 498.948 192.97 499.592C192.97 500.222 192.522 500.614 191.416 500.614C190.436 500.614 189.932 500.404 189.33 500.18V501.034C189.904 501.356 190.66 501.524 191.57 501.524ZM198.064 501.538C199.184 501.538 199.982 501.188 200.402 500.894V500.096C199.772 500.39 199.156 500.614 198.232 500.614C196.748 500.614 195.922 499.942 195.866 498.206H200.598V497.604C200.598 495.448 199.702 494.342 197.798 494.342C196.202 494.342 194.774 495.42 194.774 497.842V498.038C194.774 500.208 195.88 501.538 198.064 501.538ZM197.77 495.21C198.904 495.21 199.478 495.84 199.478 497.352H195.866C195.978 495.714 196.902 495.21 197.77 495.21ZM201.8 501.412H202.878V495.952C203.368 495.602 204.04 495.35 204.74 495.35C204.852 495.35 205.062 495.364 205.244 495.392V494.426C205.174 494.412 204.978 494.398 204.824 494.398C204.04 494.398 203.284 494.804 202.892 495.252H202.822V494.468H201.8V501.412ZM211.398 503.442C212.602 503.442 213.652 503.176 214.45 502.826V502.126C213.82 502.336 212.7 502.672 211.412 502.672C208.374 502.672 206.904 501.034 206.904 498.374C206.904 495.35 208.64 492.914 211.93 492.914C214.618 492.914 215.892 494.566 215.892 496.932C215.892 498.99 215.164 500.124 213.96 500.124C213.428 500.124 213.274 499.83 213.372 499.326L214.198 494.93H213.204L213.12 495.35H213.064C212.77 495.07 212.252 494.804 211.58 494.804C209.788 494.804 208.682 496.386 208.682 498.682C208.682 500.054 209.354 500.908 210.572 500.908C211.314 500.908 211.902 500.488 212.294 500.04H212.336C212.462 500.558 212.91 500.908 213.792 500.908C215.668 500.908 216.816 499.396 216.816 496.848C216.816 494.132 214.968 492.116 211.958 492.116C208.066 492.116 205.994 495.196 205.994 498.388C205.994 501.566 207.94 503.442 211.398 503.442ZM210.852 500.082C210.138 500.082 209.76 499.606 209.76 498.668C209.76 496.932 210.25 495.644 211.58 495.644C212.21 495.644 212.672 495.882 212.896 496.148L212.336 499.354C211.972 499.718 211.496 500.082 210.852 500.082ZM220.469 503.47C222.835 503.47 223.787 502.532 223.787 501.342C223.787 500.054 222.849 499.676 221.589 499.676H219.671C219.209 499.676 218.985 499.536 218.985 499.158C218.985 498.934 219.125 498.766 219.307 498.598C219.671 498.724 220.063 498.794 220.497 498.794C221.953 498.794 223.101 498.052 223.101 496.568V496.554C223.101 496.008 222.919 495.588 222.597 495.28H223.843V494.454H221.491C221.183 494.384 220.861 494.342 220.511 494.342C218.985 494.342 217.893 495.14 217.893 496.582V496.61C217.893 497.436 218.229 497.996 218.761 498.346C218.229 498.738 217.977 499.06 217.977 499.494C217.977 499.956 218.285 500.25 218.677 500.362V500.432C217.963 500.67 217.361 501.104 217.361 501.846C217.361 502.854 218.355 503.47 220.469 503.47ZM220.441 502.63C219.069 502.63 218.481 502.322 218.481 501.706C218.481 501.118 218.887 500.81 219.419 500.628H221.421C222.331 500.628 222.667 500.838 222.667 501.482C222.667 502.21 222.079 502.63 220.441 502.63ZM220.497 497.954C219.573 497.954 218.957 497.506 218.957 496.596V496.526C218.957 495.658 219.545 495.154 220.497 495.154C221.435 495.154 222.023 495.588 222.023 496.54V496.61C222.023 497.506 221.463 497.954 220.497 497.954ZM224.721 501.412H225.785V495.77C226.345 495.504 226.961 495.266 227.549 495.266C228.473 495.266 228.809 495.616 228.809 496.456V501.412H229.873V496.232C229.873 496.064 229.859 495.938 229.831 495.77C230.489 495.476 231.077 495.266 231.623 495.266C232.561 495.266 232.897 495.616 232.897 496.456V501.412H233.947V496.232C233.947 494.888 233.247 494.342 232.043 494.342C231.259 494.342 230.447 494.622 229.691 495.112H229.635C229.313 494.594 228.753 494.342 227.969 494.342C227.185 494.342 226.443 494.664 225.799 495.07H225.743V494.468H224.721V501.412ZM237.245 501.538C238.183 501.538 238.771 501.202 239.093 500.81H239.163L239.275 501.412H240.143V496.386C240.143 494.972 239.289 494.342 237.763 494.342C236.965 494.342 236.293 494.468 235.691 494.72V495.49C236.125 495.364 236.671 495.266 237.343 495.266C238.589 495.266 239.065 495.546 239.065 496.624V497.352L237.189 497.576C235.859 497.73 235.075 498.374 235.075 499.592C235.075 500.894 235.985 501.538 237.245 501.538ZM237.511 500.698C236.713 500.698 236.195 500.32 236.195 499.564C236.195 498.766 236.615 498.416 237.469 498.332L239.065 498.15V500.194C238.771 500.488 238.155 500.698 237.511 500.698ZM241.789 501.412H242.853V494.482H241.789V501.412ZM241.775 493.082H242.867V491.962H241.775V493.082ZM244.538 501.412H245.616V491.388H244.538V501.412ZM246.84 501.762H248.058V500.516H246.84V501.762ZM252.797 501.538C253.763 501.538 254.379 501.258 254.827 500.992V500.124C254.477 500.32 253.861 500.614 252.923 500.614C251.439 500.614 250.697 499.816 250.697 498.038V497.702C250.697 496.106 251.523 495.252 252.783 495.252C253.693 495.252 254.141 495.42 254.757 495.7V494.804C254.295 494.51 253.749 494.342 252.839 494.342C251.047 494.342 249.591 495.406 249.591 497.87V498.08C249.591 500.362 250.809 501.538 252.797 501.538ZM258.621 501.538C260.497 501.538 261.785 500.222 261.785 498.01V497.814C261.785 495.616 260.595 494.342 258.635 494.342C256.759 494.342 255.485 495.658 255.485 497.856V498.066C255.485 500.278 256.661 501.538 258.621 501.538ZM258.649 500.656C257.487 500.656 256.577 500.026 256.577 498.094V497.744C256.577 496.12 257.361 495.224 258.621 495.224C259.755 495.224 260.693 495.854 260.693 497.786V498.136C260.693 499.774 259.909 500.656 258.649 500.656ZM262.99 501.412H264.054V495.77C264.614 495.504 265.23 495.266 265.818 495.266C266.742 495.266 267.078 495.616 267.078 496.456V501.412H268.142V496.232C268.142 496.064 268.128 495.938 268.1 495.77C268.758 495.476 269.346 495.266 269.892 495.266C270.83 495.266 271.166 495.616 271.166 496.456V501.412H272.216V496.232C272.216 494.888 271.516 494.342 270.312 494.342C269.528 494.342 268.716 494.622 267.96 495.112H267.904C267.582 494.594 267.022 494.342 266.238 494.342C265.454 494.342 264.712 494.664 264.068 495.07H264.012V494.468H262.99V501.412Z" fill="#6C6A6A"/>
<path d="M39.2656 459.071H34.644V462.85H40.0127V464H33.2378V453.336H39.9395V454.493H34.644V457.921H39.2656V459.071ZM42.8252 456.075L42.8618 456.954C43.4429 456.271 44.2266 455.929 45.2129 455.929C46.3213 455.929 47.0757 456.354 47.4761 457.203C47.7397 456.822 48.0815 456.515 48.5015 456.28C48.9263 456.046 49.4268 455.929 50.0029 455.929C51.7412 455.929 52.625 456.849 52.6543 458.69V464H51.2993V458.771C51.2993 458.204 51.1699 457.782 50.9111 457.503C50.6523 457.22 50.2178 457.079 49.6074 457.079C49.1045 457.079 48.687 457.23 48.355 457.533C48.0229 457.831 47.8301 458.233 47.7764 458.741V464H46.4141V458.807C46.4141 457.655 45.8501 457.079 44.7222 457.079C43.8335 457.079 43.2256 457.457 42.8984 458.214V464H41.5435V456.075H42.8252ZM59.5977 464C59.5195 463.844 59.4561 463.565 59.4072 463.165C58.7773 463.819 58.0254 464.146 57.1514 464.146C56.3701 464.146 55.728 463.927 55.2251 463.487C54.7271 463.043 54.478 462.481 54.478 461.803C54.478 460.978 54.7905 460.338 55.4155 459.884C56.0454 459.425 56.9292 459.195 58.0669 459.195H59.3853V458.573C59.3853 458.099 59.2437 457.723 58.9604 457.445C58.6772 457.162 58.2598 457.02 57.708 457.02C57.2246 457.02 56.8193 457.142 56.4922 457.386C56.165 457.63 56.0015 457.926 56.0015 458.272H54.6392C54.6392 457.877 54.7783 457.496 55.0566 457.13C55.3398 456.759 55.7207 456.466 56.1992 456.251C56.6826 456.036 57.2124 455.929 57.7886 455.929C58.7017 455.929 59.417 456.158 59.9346 456.617C60.4521 457.071 60.7207 457.699 60.7402 458.5V462.147C60.7402 462.875 60.833 463.453 61.0186 463.883V464H59.5977ZM57.3491 462.967C57.7739 462.967 58.1768 462.857 58.5576 462.638C58.9385 462.418 59.2144 462.132 59.3853 461.781V460.155H58.3232C56.6631 460.155 55.833 460.641 55.833 461.612C55.833 462.037 55.9746 462.369 56.2578 462.608C56.541 462.848 56.9048 462.967 57.3491 462.967ZM64.3364 464H62.9814V456.075H64.3364V464ZM62.8716 453.973C62.8716 453.753 62.9375 453.568 63.0693 453.417C63.2061 453.265 63.4062 453.189 63.6699 453.189C63.9336 453.189 64.1338 453.265 64.2705 453.417C64.4072 453.568 64.4756 453.753 64.4756 453.973C64.4756 454.193 64.4072 454.376 64.2705 454.522C64.1338 454.669 63.9336 454.742 63.6699 454.742C63.4062 454.742 63.2061 454.669 63.0693 454.522C62.9375 454.376 62.8716 454.193 62.8716 453.973ZM67.9839 464H66.6289V452.75H67.9839V464ZM79.981 461.217H75.5132L74.5098 464H73.0596L77.1318 453.336H78.3623L82.4419 464H80.999L79.981 461.217ZM75.938 460.06H79.5635L77.7471 455.072L75.938 460.06ZM83.3354 459.972C83.3354 458.756 83.6235 457.779 84.1997 457.042C84.7759 456.3 85.5303 455.929 86.4629 455.929C87.3906 455.929 88.1255 456.246 88.6675 456.881V452.75H90.0225V464H88.7773L88.7114 463.15C88.1694 463.814 87.415 464.146 86.4482 464.146C85.5303 464.146 84.7808 463.771 84.1997 463.019C83.6235 462.267 83.3354 461.285 83.3354 460.074V459.972ZM84.6904 460.125C84.6904 461.024 84.876 461.727 85.2471 462.235C85.6182 462.743 86.1309 462.997 86.7852 462.997C87.6445 462.997 88.272 462.611 88.6675 461.839V458.199C88.2622 457.452 87.6396 457.079 86.7998 457.079C86.1357 457.079 85.6182 457.335 85.2471 457.848C84.876 458.36 84.6904 459.12 84.6904 460.125ZM91.8022 459.972C91.8022 458.756 92.0903 457.779 92.6665 457.042C93.2427 456.3 93.9971 455.929 94.9297 455.929C95.8574 455.929 96.5923 456.246 97.1343 456.881V452.75H98.4893V464H97.2441L97.1782 463.15C96.6362 463.814 95.8818 464.146 94.915 464.146C93.9971 464.146 93.2476 463.771 92.6665 463.019C92.0903 462.267 91.8022 461.285 91.8022 460.074V459.972ZM93.1572 460.125C93.1572 461.024 93.3428 461.727 93.7139 462.235C94.085 462.743 94.5977 462.997 95.252 462.997C96.1113 462.997 96.7388 462.611 97.1343 461.839V458.199C96.729 457.452 96.1064 457.079 95.2666 457.079C94.6025 457.079 94.085 457.335 93.7139 457.848C93.3428 458.36 93.1572 459.12 93.1572 460.125ZM104.429 457.291C104.224 457.257 104.002 457.24 103.763 457.24C102.874 457.24 102.271 457.618 101.954 458.375V464H100.599V456.075H101.917L101.939 456.991C102.383 456.283 103.013 455.929 103.829 455.929C104.092 455.929 104.292 455.963 104.429 456.031V457.291ZM108.824 464.146C107.75 464.146 106.875 463.795 106.202 463.092C105.528 462.384 105.191 461.439 105.191 460.257V460.008C105.191 459.222 105.34 458.521 105.638 457.906C105.94 457.286 106.36 456.803 106.897 456.456C107.439 456.104 108.025 455.929 108.655 455.929C109.686 455.929 110.486 456.268 111.058 456.947C111.629 457.625 111.915 458.597 111.915 459.862V460.426H106.546C106.565 461.207 106.792 461.839 107.227 462.323C107.667 462.801 108.223 463.041 108.897 463.041C109.375 463.041 109.781 462.943 110.113 462.748C110.445 462.552 110.735 462.293 110.984 461.971L111.812 462.616C111.148 463.636 110.152 464.146 108.824 464.146ZM108.655 457.042C108.108 457.042 107.649 457.242 107.278 457.643C106.907 458.038 106.678 458.595 106.59 459.312H110.56V459.21C110.521 458.521 110.335 457.989 110.003 457.613C109.671 457.232 109.222 457.042 108.655 457.042ZM118.104 461.898C118.104 461.532 117.964 461.249 117.686 461.048C117.413 460.843 116.932 460.667 116.243 460.521C115.56 460.375 115.015 460.199 114.61 459.994C114.209 459.789 113.912 459.544 113.716 459.261C113.526 458.978 113.431 458.641 113.431 458.25C113.431 457.601 113.704 457.052 114.251 456.603C114.803 456.153 115.506 455.929 116.36 455.929C117.259 455.929 117.986 456.161 118.543 456.625C119.104 457.088 119.385 457.682 119.385 458.404H118.023C118.023 458.033 117.864 457.713 117.547 457.445C117.234 457.176 116.839 457.042 116.36 457.042C115.867 457.042 115.481 457.149 115.203 457.364C114.925 457.579 114.786 457.86 114.786 458.207C114.786 458.534 114.915 458.78 115.174 458.946C115.433 459.112 115.899 459.271 116.573 459.422C117.251 459.574 117.801 459.754 118.221 459.964C118.641 460.174 118.951 460.428 119.151 460.726C119.356 461.019 119.458 461.378 119.458 461.803C119.458 462.511 119.175 463.08 118.609 463.509C118.042 463.934 117.308 464.146 116.404 464.146C115.77 464.146 115.208 464.034 114.72 463.81C114.231 463.585 113.848 463.272 113.57 462.872C113.296 462.467 113.16 462.03 113.16 461.561H114.515C114.539 462.015 114.72 462.376 115.057 462.645C115.398 462.909 115.848 463.041 116.404 463.041C116.917 463.041 117.327 462.938 117.635 462.733C117.947 462.523 118.104 462.245 118.104 461.898ZM125.838 461.898C125.838 461.532 125.699 461.249 125.42 461.048C125.147 460.843 124.666 460.667 123.978 460.521C123.294 460.375 122.75 460.199 122.344 459.994C121.944 459.789 121.646 459.544 121.451 459.261C121.26 458.978 121.165 458.641 121.165 458.25C121.165 457.601 121.438 457.052 121.985 456.603C122.537 456.153 123.24 455.929 124.095 455.929C124.993 455.929 125.721 456.161 126.277 456.625C126.839 457.088 127.12 457.682 127.12 458.404H125.757C125.757 458.033 125.599 457.713 125.281 457.445C124.969 457.176 124.573 457.042 124.095 457.042C123.602 457.042 123.216 457.149 122.938 457.364C122.659 457.579 122.52 457.86 122.52 458.207C122.52 458.534 122.649 458.78 122.908 458.946C123.167 459.112 123.633 459.271 124.307 459.422C124.986 459.574 125.535 459.754 125.955 459.964C126.375 460.174 126.685 460.428 126.885 460.726C127.09 461.019 127.193 461.378 127.193 461.803C127.193 462.511 126.91 463.08 126.343 463.509C125.777 463.934 125.042 464.146 124.139 464.146C123.504 464.146 122.942 464.034 122.454 463.81C121.966 463.585 121.583 463.272 121.304 462.872C121.031 462.467 120.894 462.03 120.894 461.561H122.249C122.273 462.015 122.454 462.376 122.791 462.645C123.133 462.909 123.582 463.041 124.139 463.041C124.651 463.041 125.062 462.938 125.369 462.733C125.682 462.523 125.838 462.245 125.838 461.898ZM128.914 463.29C128.914 463.055 128.982 462.86 129.119 462.704C129.261 462.547 129.471 462.469 129.749 462.469C130.027 462.469 130.237 462.547 130.379 462.704C130.525 462.86 130.599 463.055 130.599 463.29C130.599 463.514 130.525 463.702 130.379 463.854C130.237 464.005 130.027 464.081 129.749 464.081C129.471 464.081 129.261 464.005 129.119 463.854C128.982 463.702 128.914 463.514 128.914 463.29ZM128.921 456.822C128.921 456.588 128.99 456.393 129.126 456.236C129.268 456.08 129.478 456.002 129.756 456.002C130.035 456.002 130.245 456.08 130.386 456.236C130.533 456.393 130.606 456.588 130.606 456.822C130.606 457.047 130.533 457.235 130.386 457.386C130.245 457.538 130.035 457.613 129.756 457.613C129.478 457.613 129.268 457.538 129.126 457.386C128.99 457.235 128.921 457.047 128.921 456.822Z" fill="white"/>
<path d="M339 548H36C29.3726 548 24 553.373 24 560V588C24 594.627 29.3726 600 36 600H339C345.627 600 351 594.627 351 588V560C351 553.373 345.627 548 339 548Z" fill="white"/>
<path d="M144.417 571.8L142.205 571.141L142.542 570.035L144.754 570.855L144.688 568.336H145.809L145.735 570.892L147.911 570.086L148.248 571.2L145.999 571.866L147.449 573.851L146.541 574.54L145.179 572.43L143.86 574.488L142.945 573.822L144.417 571.8ZM150.877 571.8L148.665 571.141L149.002 570.035L151.214 570.855L151.148 568.336H152.269L152.195 570.892L154.371 570.086L154.708 571.2L152.459 571.866L153.909 573.851L153.001 574.54L151.639 572.43L150.32 574.488L149.405 573.822L150.877 571.8ZM157.337 571.8L155.125 571.141L155.462 570.035L157.674 570.855L157.608 568.336H158.729L158.655 570.892L160.831 570.086L161.167 571.2L158.919 571.866L160.369 573.851L159.461 574.54L158.099 572.43L156.78 574.488L155.865 573.822L157.337 571.8ZM163.797 571.8L161.585 571.141L161.922 570.035L164.134 570.855L164.068 568.336H165.188L165.115 570.892L167.291 570.086L167.627 571.2L165.379 571.866L166.829 573.851L165.921 574.54L164.559 572.43L163.24 574.488L162.325 573.822L163.797 571.8ZM170.257 571.8L168.045 571.141L168.382 570.035L170.594 570.855L170.528 568.336H171.648L171.575 570.892L173.75 570.086L174.087 571.2L171.839 571.866L173.289 573.851L172.381 574.54L171.019 572.43L169.7 574.488L168.785 573.822L170.257 571.8ZM176.717 571.8L174.505 571.141L174.842 570.035L177.054 570.855L176.988 568.336H178.108L178.035 570.892L180.21 570.086L180.547 571.2L178.299 571.866L179.749 573.851L178.841 574.54L177.479 572.43L176.16 574.488L175.245 573.822L176.717 571.8ZM183.177 571.8L180.965 571.141L181.302 570.035L183.514 570.855L183.448 568.336H184.568L184.495 570.892L186.67 570.086L187.007 571.2L184.759 571.866L186.209 573.851L185.301 574.54L183.938 572.43L182.62 574.488L181.705 573.822L183.177 571.8ZM189.637 571.8L187.425 571.141L187.762 570.035L189.974 570.855L189.908 568.336H191.028L190.955 570.892L193.13 570.086L193.467 571.2L191.219 571.866L192.669 573.851L191.761 574.54L190.398 572.43L189.08 574.488L188.165 573.822L189.637 571.8ZM196.097 571.8L193.885 571.141L194.222 570.035L196.434 570.855L196.368 568.336H197.488L197.415 570.892L199.59 570.086L199.927 571.2L197.679 571.866L199.129 573.851L198.221 574.54L196.858 572.43L195.54 574.488L194.625 573.822L196.097 571.8ZM202.557 571.8L200.345 571.141L200.682 570.035L202.894 570.855L202.828 568.336H203.948L203.875 570.892L206.05 570.086L206.387 571.2L204.139 571.866L205.589 573.851L204.681 574.54L203.318 572.43L202 574.488L201.084 573.822L202.557 571.8ZM209.017 571.8L206.805 571.141L207.142 570.035L209.354 570.855L209.288 568.336H210.408L210.335 570.892L212.51 570.086L212.847 571.2L210.599 571.866L212.049 573.851L211.141 574.54L209.778 572.43L208.46 574.488L207.544 573.822L209.017 571.8ZM215.477 571.8L213.265 571.141L213.602 570.035L215.813 570.855L215.748 568.336H216.868L216.795 570.892L218.97 570.086L219.307 571.2L217.059 571.866L218.509 573.851L217.601 574.54L216.238 572.43L214.92 574.488L214.004 573.822L215.477 571.8ZM221.937 571.8L219.725 571.141L220.062 570.035L222.273 570.855L222.208 568.336H223.328L223.255 570.892L225.43 570.086L225.767 571.2L223.519 571.866L224.969 573.851L224.061 574.54L222.698 572.43L221.38 574.488L220.464 573.822L221.937 571.8ZM228.396 571.8L226.185 571.141L226.521 570.035L228.733 570.855L228.667 568.336H229.788L229.715 570.892L231.89 570.086L232.227 571.2L229.979 571.866L231.429 573.851L230.521 574.54L229.158 572.43L227.84 574.488L226.924 573.822L228.396 571.8Z" fill="#8B8A8A"/>
<path d="M34.644 537.825V542H33.2378V531.336H37.1709C38.3379 531.336 39.251 531.634 39.9102 532.229C40.5742 532.825 40.9062 533.614 40.9062 534.595C40.9062 535.63 40.5815 536.429 39.9321 536.99C39.2876 537.547 38.3623 537.825 37.1562 537.825H34.644ZM34.644 536.675H37.1709C37.9229 536.675 38.499 536.5 38.8994 536.148C39.2998 535.792 39.5 535.279 39.5 534.61C39.5 533.975 39.2998 533.467 38.8994 533.086C38.499 532.706 37.9497 532.508 37.2515 532.493H34.644V536.675ZM47.293 542C47.2148 541.844 47.1514 541.565 47.1025 541.165C46.4727 541.819 45.7207 542.146 44.8467 542.146C44.0654 542.146 43.4233 541.927 42.9204 541.487C42.4224 541.043 42.1733 540.481 42.1733 539.803C42.1733 538.978 42.4858 538.338 43.1108 537.884C43.7407 537.425 44.6245 537.195 45.7622 537.195H47.0806V536.573C47.0806 536.099 46.939 535.723 46.6558 535.445C46.3726 535.162 45.9551 535.02 45.4033 535.02C44.9199 535.02 44.5146 535.142 44.1875 535.386C43.8604 535.63 43.6968 535.926 43.6968 536.272H42.3345C42.3345 535.877 42.4736 535.496 42.752 535.13C43.0352 534.759 43.416 534.466 43.8945 534.251C44.3779 534.036 44.9077 533.929 45.4839 533.929C46.397 533.929 47.1123 534.158 47.6299 534.617C48.1475 535.071 48.416 535.699 48.4355 536.5V540.147C48.4355 540.875 48.5283 541.453 48.7139 541.883V542H47.293ZM45.0444 540.967C45.4692 540.967 45.8721 540.857 46.2529 540.638C46.6338 540.418 46.9097 540.132 47.0806 539.781V538.155H46.0186C44.3584 538.155 43.5283 538.641 43.5283 539.612C43.5283 540.037 43.6699 540.369 43.9531 540.608C44.2363 540.848 44.6001 540.967 45.0444 540.967ZM55.1738 539.898C55.1738 539.532 55.0347 539.249 54.7563 539.048C54.4829 538.843 54.002 538.667 53.3135 538.521C52.6299 538.375 52.0854 538.199 51.6802 537.994C51.2798 537.789 50.9819 537.544 50.7866 537.261C50.5962 536.978 50.501 536.641 50.501 536.25C50.501 535.601 50.7744 535.052 51.3213 534.603C51.873 534.153 52.5762 533.929 53.4307 533.929C54.3291 533.929 55.0566 534.161 55.6133 534.625C56.1748 535.088 56.4556 535.682 56.4556 536.404H55.0933C55.0933 536.033 54.9346 535.713 54.6172 535.445C54.3047 535.176 53.9092 535.042 53.4307 535.042C52.9375 535.042 52.5518 535.149 52.2734 535.364C51.9951 535.579 51.856 535.86 51.856 536.207C51.856 536.534 51.9854 536.78 52.2441 536.946C52.5029 537.112 52.9692 537.271 53.6431 537.422C54.3218 537.574 54.8711 537.754 55.291 537.964C55.7109 538.174 56.021 538.428 56.2212 538.726C56.4263 539.019 56.5288 539.378 56.5288 539.803C56.5288 540.511 56.2456 541.08 55.6792 541.509C55.1128 541.934 54.3779 542.146 53.4746 542.146C52.8398 542.146 52.2783 542.034 51.79 541.81C51.3018 541.585 50.9185 541.272 50.6401 540.872C50.3667 540.467 50.23 540.03 50.23 539.561H51.585C51.6094 540.015 51.79 540.376 52.127 540.645C52.4688 540.909 52.918 541.041 53.4746 541.041C53.9873 541.041 54.3975 540.938 54.7051 540.733C55.0176 540.523 55.1738 540.245 55.1738 539.898ZM62.9082 539.898C62.9082 539.532 62.769 539.249 62.4907 539.048C62.2173 538.843 61.7363 538.667 61.0479 538.521C60.3643 538.375 59.8198 538.199 59.4146 537.994C59.0142 537.789 58.7163 537.544 58.521 537.261C58.3306 536.978 58.2354 536.641 58.2354 536.25C58.2354 535.601 58.5088 535.052 59.0557 534.603C59.6074 534.153 60.3105 533.929 61.165 533.929C62.0635 533.929 62.791 534.161 63.3477 534.625C63.9092 535.088 64.1899 535.682 64.1899 536.404H62.8276C62.8276 536.033 62.6689 535.713 62.3516 535.445C62.0391 535.176 61.6436 535.042 61.165 535.042C60.6719 535.042 60.2861 535.149 60.0078 535.364C59.7295 535.579 59.5903 535.86 59.5903 536.207C59.5903 536.534 59.7197 536.78 59.9785 536.946C60.2373 537.112 60.7036 537.271 61.3774 537.422C62.0562 537.574 62.6055 537.754 63.0254 537.964C63.4453 538.174 63.7554 538.428 63.9556 538.726C64.1606 539.019 64.2632 539.378 64.2632 539.803C64.2632 540.511 63.98 541.08 63.4136 541.509C62.8472 541.934 62.1123 542.146 61.209 542.146C60.5742 542.146 60.0127 542.034 59.5244 541.81C59.0361 541.585 58.6528 541.272 58.3745 540.872C58.1011 540.467 57.9644 540.03 57.9644 539.561H59.3193C59.3438 540.015 59.5244 540.376 59.8613 540.645C60.2031 540.909 60.6523 541.041 61.209 541.041C61.7217 541.041 62.1318 540.938 62.4395 540.733C62.752 540.523 62.9082 540.245 62.9082 539.898ZM73.0449 540.132L74.5684 534.075H75.9233L73.6162 542H72.5176L70.5913 535.994L68.7163 542H67.6177L65.3179 534.075H66.6655L68.2256 540.008L70.0713 534.075H71.1626L73.0449 540.132ZM76.9487 537.964C76.9487 537.188 77.1001 536.49 77.4028 535.87C77.7104 535.25 78.1353 534.771 78.6772 534.434C79.2241 534.097 79.8467 533.929 80.5449 533.929C81.624 533.929 82.4956 534.302 83.1597 535.049C83.8286 535.796 84.1631 536.79 84.1631 538.03V538.125C84.1631 538.897 84.0142 539.59 83.7163 540.206C83.4233 540.816 83.001 541.292 82.4492 541.634C81.9023 541.976 81.2725 542.146 80.5596 542.146C79.4854 542.146 78.6138 541.773 77.9448 541.026C77.2808 540.279 76.9487 539.29 76.9487 538.06V537.964ZM78.311 538.125C78.311 539.004 78.5137 539.71 78.9189 540.242C79.3291 540.774 79.876 541.041 80.5596 541.041C81.248 541.041 81.7949 540.772 82.2002 540.235C82.6055 539.693 82.8081 538.936 82.8081 537.964C82.8081 537.095 82.6006 536.392 82.1855 535.855C81.7754 535.313 81.2285 535.042 80.5449 535.042C79.876 535.042 79.3364 535.308 78.9263 535.84C78.5161 536.373 78.311 537.134 78.311 538.125ZM89.6929 535.291C89.4878 535.257 89.2656 535.24 89.0264 535.24C88.1377 535.24 87.5347 535.618 87.2173 536.375V542H85.8623V534.075H87.1807L87.2026 534.991C87.647 534.283 88.2769 533.929 89.0923 533.929C89.356 533.929 89.5562 533.963 89.6929 534.031V535.291ZM90.4692 537.972C90.4692 536.756 90.7573 535.779 91.3335 535.042C91.9097 534.3 92.6641 533.929 93.5967 533.929C94.5244 533.929 95.2593 534.246 95.8013 534.881V530.75H97.1562V542H95.9111L95.8452 541.15C95.3032 541.814 94.5488 542.146 93.582 542.146C92.6641 542.146 91.9146 541.771 91.3335 541.019C90.7573 540.267 90.4692 539.285 90.4692 538.074V537.972ZM91.8242 538.125C91.8242 539.024 92.0098 539.727 92.3809 540.235C92.752 540.743 93.2646 540.997 93.9189 540.997C94.7783 540.997 95.4058 540.611 95.8013 539.839V536.199C95.396 535.452 94.7734 535.079 93.9336 535.079C93.2695 535.079 92.752 535.335 92.3809 535.848C92.0098 536.36 91.8242 537.12 91.8242 538.125ZM99.2217 541.29C99.2217 541.055 99.29 540.86 99.4268 540.704C99.5684 540.547 99.7783 540.469 100.057 540.469C100.335 540.469 100.545 540.547 100.687 540.704C100.833 540.86 100.906 541.055 100.906 541.29C100.906 541.514 100.833 541.702 100.687 541.854C100.545 542.005 100.335 542.081 100.057 542.081C99.7783 542.081 99.5684 542.005 99.4268 541.854C99.29 541.702 99.2217 541.514 99.2217 541.29ZM99.229 534.822C99.229 534.588 99.2974 534.393 99.4341 534.236C99.5757 534.08 99.7856 534.002 100.064 534.002C100.342 534.002 100.552 534.08 100.694 534.236C100.84 534.393 100.914 534.588 100.914 534.822C100.914 535.047 100.84 535.235 100.694 535.386C100.552 535.538 100.342 535.613 100.064 535.613C99.7856 535.613 99.5757 535.538 99.4341 535.386C99.2974 535.235 99.229 535.047 99.229 534.822Z" fill="white"/>
<path d="M179.667 705.964C179.667 705.188 179.818 704.49 180.121 703.87C180.428 703.25 180.853 702.771 181.395 702.434C181.942 702.097 182.564 701.929 183.263 701.929C184.342 701.929 185.213 702.302 185.877 703.049C186.546 703.796 186.881 704.79 186.881 706.03V706.125C186.881 706.897 186.732 707.59 186.434 708.206C186.141 708.816 185.719 709.292 185.167 709.634C184.62 709.976 183.99 710.146 183.277 710.146C182.203 710.146 181.332 709.773 180.663 709.026C179.999 708.279 179.667 707.29 179.667 706.06V705.964ZM181.029 706.125C181.029 707.004 181.231 707.71 181.637 708.242C182.047 708.774 182.594 709.041 183.277 709.041C183.966 709.041 184.513 708.772 184.918 708.235C185.323 707.693 185.526 706.936 185.526 705.964C185.526 705.095 185.318 704.392 184.903 703.855C184.493 703.313 183.946 703.042 183.263 703.042C182.594 703.042 182.054 703.308 181.644 703.84C181.234 704.373 181.029 705.134 181.029 706.125ZM192.411 703.291C192.206 703.257 191.983 703.24 191.744 703.24C190.855 703.24 190.252 703.618 189.935 704.375V710H188.58V702.075H189.898L189.92 702.991C190.365 702.283 190.995 701.929 191.81 701.929C192.074 701.929 192.274 701.963 192.411 702.031V703.291Z" fill="white"/>
<line x1="32" y1="705.5" x2="161" y2="705.5" stroke="#C4C4C4"/>
<line x1="212" y1="705.5" x2="341" y2="705.5" stroke="#C4C4C4"/>
</svg>
